#N canvas 3 44 711 1043 10;
#X obj 19 34 pulsarGen;
#X obj 19 884 snake~ out 2;
#X obj 19 906 fexpr~ tanh($x1) \; tanh($x2);
#X obj 19 938 hip~ 5;
#X obj 19 959 hip~ 5;
#X obj 19 980 hip~ 5;
#X obj 118 938 hip~ 5;
#X obj 118 959 hip~ 5;
#X obj 118 980 hip~ 5;
#X obj 19 1001 dac~, f 17;
#X connect 0 0 1 0;
#X connect 1 0 2 0;
#X connect 1 1 2 1;
#X connect 2 0 3 0;
#X connect 2 1 6 0;
#X connect 3 0 4 0;
#X connect 4 0 5 0;
#X connect 5 0 9 0;
#X connect 6 0 7 0;
#X connect 7 0 8 0;
#X connect 8 0 9 1;
