#N canvas 2 44 716 984 10;
#X obj 22 21 pulsarGen;
#X obj 22 864 snake~ out 2;
#X obj 22 886 hip~ 5;
#X obj 22 907 hip~ 5;
#X obj 22 928 hip~ 5;
#X obj 91 886 hip~ 5;
#X obj 91 907 hip~ 5;
#X obj 91 928 hip~ 5;
#X obj 22 949 dac~;
#X connect 0 0 1 0;
#X connect 1 0 2 0;
#X connect 1 1 5 0;
#X connect 2 0 3 0;
#X connect 3 0 4 0;
#X connect 4 0 8 0;
#X connect 5 0 6 0;
#X connect 6 0 7 0;
#X connect 7 0 8 1;
