#N canvas 1838 626 990 650 10;
#X obj 25 38 gemwin;
#X obj 27 77 r xpos;
#X obj 79 77 r ypos;
#X obj 132 77 r zpos;
#X obj 105 520 curve3d 3 4;
#X obj 323 583 pix_texture;
#N canvas 63 107 620 920 xyzCoords 0;
#X obj 35 20 inlet;
#X obj 70 143 unpack f f f f f f f f f f f f;
#X obj 122 103 unpack f f f f f f f f f f f f;
#X obj 191 65 unpack f f f f f f f f f f f f;
#X obj 70 176 pack f f f;
#X msg 70 197 set 0 0 \$1 \$2 \$3;
#X obj 98 221 pack f f f;
#X msg 98 242 set 1 0 \$1 \$2 \$3;
#X obj 166 269 pack f f f;
#X obj 63 323 pack f f f;
#X msg 166 290 set 2 0 \$1 \$2 \$3;
#X msg 63 344 set 0 1 \$1 \$2 \$3;
#X obj 109 371 pack f f f;
#X msg 109 392 set 1 1 \$1 \$2 \$3;
#X obj 164 420 pack f f f;
#X msg 164 441 set 2 1 \$1 \$2 \$3;
#X obj 62 452 pack f f f;
#X obj 90 497 pack f f f;
#X obj 158 545 pack f f f;
#X obj 68 576 pack f f f;
#X obj 114 624 pack f f f;
#X obj 169 673 pack f f f;
#X msg 62 473 set 0 2 \$1 \$2 \$3;
#X msg 90 518 set 1 2 \$1 \$2 \$3;
#X msg 158 566 set 2 2 \$1 \$2 \$3;
#X msg 68 597 set 0 3 \$1 \$2 \$3;
#X msg 114 645 set 1 3 \$1 \$2 \$3;
#X msg 169 694 set 2 3 \$1 \$2 \$3;
#X obj 91 19 inlet;
#X obj 179 24 inlet;
#X obj 12 780 s curveSet;
#X connect 0 0 1 0;
#X connect 1 0 4 0;
#X connect 1 1 6 0;
#X connect 1 2 8 0;
#X connect 1 3 9 0;
#X connect 1 4 12 0;
#X connect 1 5 14 0;
#X connect 1 6 16 0;
#X connect 1 7 17 0;
#X connect 1 8 18 0;
#X connect 1 9 19 0;
#X connect 1 10 20 0;
#X connect 1 11 21 0;
#X connect 2 0 4 1;
#X connect 2 1 6 1;
#X connect 2 2 8 1;
#X connect 2 3 9 1;
#X connect 2 4 12 1;
#X connect 2 5 14 1;
#X connect 2 6 16 1;
#X connect 2 7 17 1;
#X connect 2 8 18 1;
#X connect 2 9 19 1;
#X connect 2 10 20 1;
#X connect 2 11 21 1;
#X connect 3 0 4 2;
#X connect 3 1 6 2;
#X connect 3 2 8 2;
#X connect 3 3 9 2;
#X connect 3 4 12 2;
#X connect 3 5 14 2;
#X connect 3 6 16 2;
#X connect 3 7 17 2;
#X connect 3 8 18 2;
#X connect 3 9 19 2;
#X connect 3 10 20 2;
#X connect 3 11 21 2;
#X connect 4 0 5 0;
#X connect 5 0 30 0;
#X connect 6 0 7 0;
#X connect 7 0 30 0;
#X connect 8 0 10 0;
#X connect 9 0 11 0;
#X connect 10 0 30 0;
#X connect 11 0 30 0;
#X connect 12 0 13 0;
#X connect 13 0 30 0;
#X connect 14 0 15 0;
#X connect 15 0 30 0;
#X connect 16 0 22 0;
#X connect 17 0 23 0;
#X connect 18 0 24 0;
#X connect 19 0 25 0;
#X connect 20 0 26 0;
#X connect 21 0 27 0;
#X connect 22 0 30 0;
#X connect 23 0 30 0;
#X connect 24 0 30 0;
#X connect 25 0 30 0;
#X connect 26 0 30 0;
#X connect 27 0 30 0;
#X connect 28 0 2 0;
#X connect 29 0 3 0;
#X restore 27 97 pd xyzCoords;
#X f 18;
#X obj 29 139 r curveSet;
#X obj 323 604 square;
#X msg 131 468 draw point;
#X msg 224 482 grid 64 64;
#X obj 105 228 scaleXYZ 5 5 5, f 18;
#X obj 323 189 translateXYZ -2.1 3.7 -0.5;
#X obj 105 249 translateXYZ -0.4 -0.4 0;
#X obj 131 433 loadbang;
#X obj 323 561 pix_puzzle;
#X obj 344 423 bng 16 250 50 0 empty empty empty 0 -8 0 10 #fcfcfc #000000 #000000;
#X msg 25 17 dimen 1920 1080 \, create \, 1;
#X obj 323 300 pix_snap 0 0 3000 3000;
#X obj 323 210 scaleXYZ 10 10 1;
#X obj 105 157 gemhead 49;
#X obj 323 18 gemhead 50;
#X obj 323 231 t a b;
#X obj 779 178 vradio 11 1 0 11 empty empty action -10 -6 0 8 #fcfcfc #000000 #000000 0;
#X floatatom 840 82 5 0 100 0 - - - 0;
#X obj 840 100 / 100;
#X msg 840 119 K1 \$1;
#X obj 652 313 t a b;
#X floatatom 840 142 5 0 100 0 - - - 0;
#X obj 840 160 / 100;
#X floatatom 840 202 5 0 100 0 - - - 0;
#X obj 840 220 / 100;
#X floatatom 890 82 5 0 100 0 - - - 0;
#X obj 890 100 / 100;
#X floatatom 890 142 5 0 100 0 - - - 0;
#X obj 890 160 / 100;
#X floatatom 890 202 5 0 100 0 - - - 0;
#X obj 890 220 / 100;
#X msg 890 119 D1 \$1;
#X msg 890 179 D2 \$1;
#X msg 890 239 D3 \$1;
#X msg 840 239 K3 \$1;
#X msg 840 179 K2 \$1;
#X obj 809 196 t a;
#X obj 809 136 t a;
#X obj 809 256 t a;
#X msg 806 338 noise 1;
#X obj 707 418 newWave 64 64;
#X obj 652 266 scaleXYZ 7 5 1;
#X msg 706 145 draw point;
#X obj 706 124 loadbang;
#X obj 652 245 gemhead 51;
#X obj 226 21 adc~, f 7;
#X obj 226 105 env~ 128;
#X obj 226 126 * 0.01;
#X obj 226 147 * 2;
#X obj 226 168 + 5;
#X obj 226 42 lop~ 180;
#X obj 226 63 lop~ 180;
#X obj 226 84 lop~ 180;
#X obj 344 402 threshold~ 0.5 5 0.1 5;
#X obj 344 359 fluid.onsetslice~ -threshold 0.15 -minslicelength 500 -fftsettings 256 -1 -1 -metric 1, f 34;
#X connect 1 0 6 0;
#X connect 2 0 6 1;
#X connect 3 0 6 2;
#X connect 5 0 8 0;
#X connect 7 0 4 0;
#X connect 9 0 4 0;
#X connect 10 0 4 0;
#X connect 11 0 13 0;
#X connect 12 0 19 0;
#X connect 13 0 4 0;
#X connect 14 0 9 0;
#X connect 14 0 10 0;
#X connect 15 0 5 0;
#X connect 16 0 15 0;
#X connect 17 0 0 0;
#X connect 18 0 15 0;
#X connect 19 0 22 0;
#X connect 20 0 11 0;
#X connect 21 0 12 0;
#X connect 22 0 18 0;
#X connect 22 1 18 0;
#X connect 23 0 47 3;
#X connect 24 0 25 0;
#X connect 25 0 26 0;
#X connect 26 0 44 0;
#X connect 27 0 47 0;
#X connect 27 1 47 0;
#X connect 28 0 29 0;
#X connect 29 0 42 0;
#X connect 30 0 31 0;
#X connect 31 0 41 0;
#X connect 32 0 33 0;
#X connect 33 0 38 0;
#X connect 34 0 35 0;
#X connect 35 0 39 0;
#X connect 36 0 37 0;
#X connect 37 0 40 0;
#X connect 38 0 44 0;
#X connect 39 0 43 0;
#X connect 40 0 45 0;
#X connect 41 0 45 0;
#X connect 42 0 43 0;
#X connect 43 0 45 0;
#X connect 44 0 43 0;
#X connect 45 0 47 0;
#X connect 46 0 47 0;
#X connect 48 0 27 0;
#X connect 49 0 47 0;
#X connect 50 0 49 0;
#X connect 51 0 48 0;
#X connect 52 0 57 0;
#X connect 53 0 54 0;
#X connect 54 0 55 0;
#X connect 55 0 56 0;
#X connect 56 0 11 1;
#X connect 56 0 11 2;
#X connect 56 0 11 3;
#X connect 57 0 58 0;
#X connect 58 0 59 0;
#X connect 59 0 53 0;
#X connect 59 0 61 0;
#X connect 60 0 16 0;
#X connect 60 1 46 0;
#X connect 61 0 60 0;
