#N canvas 735 45 1003 1042 10;
#X text 13 187 converts to int and only;
#X text 13 200 updates on change;
#X text 14 12 any "xIn" receive that needs type conversion is dealt with here;
#X obj 16 374 expr if($f1 > 0.5 \, 1 \, 0);
#X obj 16 446 expr if($f1 > 0.5 \, 1 \, 0);
#X obj 16 517 int;
#X obj 16 626 int;
#X obj 16 840 expr if($f1 > 0.5 \, 1 \, 0);
#X obj 16 908 int;
#X obj 382 70 expr if($f1 > 0.5 \, 1 \, 0);
#X obj 382 197 expr if($f1 > 0.5 \, 1 \, 0);
#X obj 382 328 expr if($f1 > 0.5 \, 1 \, 0);
#X obj 382 458 expr if($f1 > 0.5 \, 1 \, 0);
#X obj 382 587 expr if($f1 > 0.5 \, 1 \, 0);
#X obj 382 720 expr if($f1 > 0.5 \, 1 \, 0);
#X obj 382 851 expr if($f1 > 0.5 \, 1 \, 0);
#X obj 382 981 expr if($f1 > 0.5 \, 1 \, 0);
#X obj 381 1112 expr if($f1 > 0.5 \, 1 \, 0);
#X obj 382 1244 expr if($f1 > 0.5 \, 1 \, 0);
#X obj 382 1376 expr if($f1 > 0.5 \, 1 \, 0);
#X obj 16 605 route set;
#X msg 16 647 set \$1;
#X obj 67 626 int;
#X obj 16 742 int;
#X obj 16 721 route set;
#X msg 16 763 set \$1;
#X obj 67 742 int;
#X obj 16 49 r puls\$1IndIn;
#X obj 16 155 s puls\$1IndCast;
#X obj 16 222 r env\$1IndIn;
#X obj 16 327 s env\$1IndCast;
#X obj 16 353 r stbin\$1In;
#X obj 16 425 r maskMode\$1In;
#X obj 16 468 s maskMode\$1Cast;
#X obj 16 496 r ratio\$1aIn;
#X obj 16 538 s ratio\$1aCast;
#X obj 16 669 s ratio\$1bCast;
#X obj 16 785 s ratio\$1cCast;
#X obj 16 819 r ratio\$1LinkIn;
#X obj 16 887 r ramp\$1SelIn;
#X obj 16 950 s ramp\$1SelCast;
#X obj 217 49 r formMod\$1IndIn;
#X obj 217 154 s formMod\$1IndCast;
#X obj 217 176 r crossMod\$1IndIn;
#X obj 217 282 s crossMod\$1IndCast;
#X obj 217 307 r fdbckMod\$1IndIn;
#X obj 217 412 s fdbckMod\$1IndCast;
#X obj 217 437 r delMod\$1IndIn;
#X obj 217 542 s delMod\$1IndCast;
#X obj 217 566 r panMod\$1IndIn;
#X obj 217 672 s panMod\$1IndCast;
#X obj 217 699 r panMod\$1IndIn;
#X obj 217 804 s panMod\$1IndCast;
#X obj 217 830 r ampMod\$1IndIn;
#X obj 217 936 s ampMod\$1IndCast;
#X obj 217 960 r fundMod\$1IndIn;
#X obj 217 1065 s fundMod\$1IndCast;
#X obj 216 1091 r fundMod\$1IndIn;
#X obj 216 1196 s fundMod\$1IndCast;
#X obj 217 1223 r scanAMod\$1IndIn;
#X obj 217 1329 s scanAMod\$1IndCast;
#X obj 382 49 r formMod\$1PlayIn;
#X obj 382 92 s formMod\$1PlayCast;
#X obj 382 176 r crossMod\$1PlayIn;
#X obj 382 219 s crossMod\$1PlayCast;
#X obj 382 307 r fdbckMod\$1PlayIn;
#X obj 382 350 s fdbckMod\$1PlayCast;
#X obj 382 437 r delMod\$1PlayIn;
#X obj 382 480 s delMod\$1PlayCast;
#X obj 382 566 r panMod\$1PlayIn;
#X obj 382 609 s panMod\$1PlayCast;
#X obj 382 699 r panMod\$1PlayIn;
#X obj 382 742 s panMod\$1PlayCast;
#X obj 382 830 r ampMod\$1PlayIn;
#X obj 382 873 s ampMod\$1PlayCast;
#X obj 382 960 r fundMod\$1PlayIn;
#X obj 382 1003 s fundMod\$1PlayCast;
#X obj 381 1091 r fundMod\$1PlayIn;
#X obj 381 1134 s fundMod\$1PlayCast;
#X obj 382 1223 r scanAMod\$1PlayIn;
#X obj 382 1266 s scanAMod\$1PlayCast;
#X obj 16 929 change -1;
#X obj 217 1355 r scanBMod\$1IndIn;
#X obj 217 1468 s scanBMod\$1IndCast;
#X obj 382 1355 r scanBMod\$1PlayIn;
#X obj 382 1398 s scanBMod\$1PlayCast;
#X obj 16 70 route range;
#X obj 79 113 change -1;
#X obj 79 91 int;
#X obj 16 396 s stbin\$1Cast;
#X obj 16 862 s ratio\$1LinkCast;
#X obj 16 243 route range;
#X obj 79 264 int;
#X obj 79 285 change -1;
#X obj 217 70 route range;
#X obj 280 90 int;
#X obj 280 111 change -1;
#X obj 217 198 route range;
#X obj 280 218 int;
#X obj 280 239 change -1;
#X obj 217 328 route range;
#X obj 280 348 int;
#X obj 280 369 change -1;
#X obj 217 459 route range;
#X obj 280 479 int;
#X obj 280 500 change -1;
#X obj 217 588 route range;
#X obj 280 608 int;
#X obj 280 629 change -1;
#X obj 217 721 route range;
#X obj 280 741 int;
#X obj 280 762 change -1;
#X obj 217 852 route range;
#X obj 280 872 int;
#X obj 280 893 change -1;
#X obj 217 981 route range;
#X obj 280 1001 int;
#X obj 280 1022 change -1;
#X obj 216 1112 route range;
#X obj 279 1132 int;
#X obj 279 1153 change -1;
#X obj 217 1245 route range;
#X obj 280 1265 int;
#X obj 280 1286 change -1;
#X obj 217 1377 route range;
#X obj 280 1397 int;
#X obj 280 1418 change -1;
#X msg 16 134 range \$1 \$2;
#X msg 217 132 range \$1 \$2;
#X msg 16 306 range \$1 \$2;
#X msg 217 260 range \$1 \$2;
#X msg 217 390 range \$1 \$2;
#X msg 217 521 range \$1 \$2;
#X msg 217 650 range \$1 \$2;
#X msg 217 783 range \$1 \$2;
#X msg 217 914 range \$1 \$2;
#X msg 217 1043 range \$1 \$2;
#X msg 216 1174 range \$1 \$2;
#X msg 217 1307 range \$1 \$2;
#X msg 217 1439 range \$1 \$2;
#X obj 557 70 route range;
#X obj 620 90 int;
#X msg 557 132 range \$1 \$2;
#X obj 557 201 route range;
#X obj 620 221 int;
#X msg 557 263 range \$1 \$2;
#X obj 557 331 route range;
#X obj 620 351 int;
#X msg 557 393 range \$1 \$2;
#X obj 557 462 route range;
#X obj 620 482 int;
#X msg 557 524 range \$1 \$2;
#X obj 726 70 route range;
#X obj 789 90 int;
#X msg 726 132 range \$1 \$2;
#X obj 726 201 route range;
#X obj 789 221 int;
#X msg 726 263 range \$1 \$2;
#X obj 726 331 route range;
#X obj 789 351 int;
#X msg 726 393 range \$1 \$2;
#X obj 726 462 route range;
#X obj 789 482 int;
#X msg 726 524 range \$1 \$2;
#X obj 726 49 r waveformB\$1Random1In;
#X obj 557 49 r waveformA\$1Random1In;
#X obj 726 180 r waveformB\$1Random2In;
#X obj 557 180 r waveformA\$1Random2In;
#X obj 557 154 s waveformA\$1Random1Cast;
#X obj 726 154 s waveformB\$1Random1Cast;
#X obj 557 285 s waveformA\$1Random2Cast;
#X obj 726 285 s waveformB\$1Random2Cast;
#X obj 557 310 r waveformA\$1Random3In;
#X obj 726 310 r waveformB\$1Random3In;
#X obj 557 415 s waveformA\$1Random3Cast;
#X obj 726 415 s waveformB\$1Random3Cast;
#X obj 557 441 r waveformA\$1Random4In;
#X obj 557 546 s waveformA\$1Random4Cast;
#X obj 726 441 r waveformB\$1Random4In;
#X obj 726 546 s waveformB\$1Random4Cast;
#X obj 16 584 r ratio\$1bIn;
#X obj 16 700 r ratio\$1cIn;
#X connect 3 0 89 0;
#X connect 4 0 33 0;
#X connect 5 0 35 0;
#X connect 6 0 21 0;
#X connect 7 0 90 0;
#X connect 8 0 81 0;
#X connect 9 0 62 0;
#X connect 10 0 64 0;
#X connect 11 0 66 0;
#X connect 12 0 68 0;
#X connect 13 0 70 0;
#X connect 14 0 72 0;
#X connect 15 0 74 0;
#X connect 16 0 76 0;
#X connect 17 0 78 0;
#X connect 18 0 80 0;
#X connect 19 0 85 0;
#X connect 20 0 6 0;
#X connect 20 1 22 0;
#X connect 21 0 36 0;
#X connect 22 0 36 0;
#X connect 23 0 25 0;
#X connect 24 0 23 0;
#X connect 24 1 26 0;
#X connect 25 0 37 0;
#X connect 26 0 37 0;
#X connect 27 0 86 0;
#X connect 29 0 91 0;
#X connect 31 0 3 0;
#X connect 32 0 4 0;
#X connect 34 0 5 0;
#X connect 38 0 7 0;
#X connect 39 0 8 0;
#X connect 41 0 94 0;
#X connect 43 0 97 0;
#X connect 45 0 100 0;
#X connect 47 0 103 0;
#X connect 49 0 106 0;
#X connect 51 0 109 0;
#X connect 53 0 112 0;
#X connect 55 0 115 0;
#X connect 57 0 118 0;
#X connect 59 0 121 0;
#X connect 61 0 9 0;
#X connect 63 0 10 0;
#X connect 65 0 11 0;
#X connect 67 0 12 0;
#X connect 69 0 13 0;
#X connect 71 0 14 0;
#X connect 73 0 15 0;
#X connect 75 0 16 0;
#X connect 77 0 17 0;
#X connect 79 0 18 0;
#X connect 81 0 40 0;
#X connect 82 0 124 0;
#X connect 84 0 19 0;
#X connect 86 0 127 0;
#X connect 86 1 88 0;
#X connect 87 0 28 0;
#X connect 88 0 87 0;
#X connect 91 0 129 0;
#X connect 91 1 92 0;
#X connect 92 0 93 0;
#X connect 93 0 30 0;
#X connect 94 0 128 0;
#X connect 94 1 95 0;
#X connect 95 0 96 0;
#X connect 96 0 42 0;
#X connect 97 0 130 0;
#X connect 97 1 98 0;
#X connect 98 0 99 0;
#X connect 99 0 44 0;
#X connect 100 0 131 0;
#X connect 100 1 101 0;
#X connect 101 0 102 0;
#X connect 102 0 46 0;
#X connect 103 0 132 0;
#X connect 103 1 104 0;
#X connect 104 0 105 0;
#X connect 105 0 48 0;
#X connect 106 0 133 0;
#X connect 106 1 107 0;
#X connect 107 0 108 0;
#X connect 108 0 50 0;
#X connect 109 0 134 0;
#X connect 109 1 110 0;
#X connect 110 0 111 0;
#X connect 111 0 52 0;
#X connect 112 0 135 0;
#X connect 112 1 113 0;
#X connect 113 0 114 0;
#X connect 114 0 54 0;
#X connect 115 0 136 0;
#X connect 115 1 116 0;
#X connect 116 0 117 0;
#X connect 117 0 56 0;
#X connect 118 0 137 0;
#X connect 118 1 119 0;
#X connect 119 0 120 0;
#X connect 120 0 58 0;
#X connect 121 0 138 0;
#X connect 121 1 122 0;
#X connect 122 0 123 0;
#X connect 123 0 60 0;
#X connect 124 0 139 0;
#X connect 124 1 125 0;
#X connect 125 0 126 0;
#X connect 126 0 83 0;
#X connect 127 0 28 0;
#X connect 128 0 42 0;
#X connect 129 0 30 0;
#X connect 130 0 44 0;
#X connect 131 0 46 0;
#X connect 132 0 48 0;
#X connect 133 0 50 0;
#X connect 134 0 52 0;
#X connect 135 0 54 0;
#X connect 136 0 56 0;
#X connect 137 0 58 0;
#X connect 138 0 60 0;
#X connect 139 0 83 0;
#X connect 140 0 142 0;
#X connect 140 1 141 0;
#X connect 141 0 168 0;
#X connect 142 0 168 0;
#X connect 143 0 145 0;
#X connect 143 1 144 0;
#X connect 144 0 170 0;
#X connect 145 0 170 0;
#X connect 146 0 148 0;
#X connect 146 1 147 0;
#X connect 147 0 174 0;
#X connect 148 0 174 0;
#X connect 149 0 151 0;
#X connect 149 1 150 0;
#X connect 150 0 177 0;
#X connect 151 0 177 0;
#X connect 152 0 154 0;
#X connect 152 1 153 0;
#X connect 153 0 169 0;
#X connect 154 0 169 0;
#X connect 155 0 157 0;
#X connect 155 1 156 0;
#X connect 156 0 171 0;
#X connect 157 0 171 0;
#X connect 158 0 160 0;
#X connect 158 1 159 0;
#X connect 159 0 175 0;
#X connect 160 0 175 0;
#X connect 161 0 163 0;
#X connect 161 1 162 0;
#X connect 162 0 179 0;
#X connect 163 0 179 0;
#X connect 164 0 152 0;
#X connect 165 0 140 0;
#X connect 166 0 155 0;
#X connect 167 0 143 0;
#X connect 172 0 146 0;
#X connect 173 0 158 0;
#X connect 176 0 149 0;
#X connect 178 0 161 0;
#X connect 180 0 20 0;
#X connect 181 0 24 0;
