#N canvas 0 71 1800 960 10;
#X obj 83 88 text get waves;
#X obj 83 252 soundfiler;
#X obj 24 296 sig~;
#X obj 24 317 lop~ 60;
#X obj 24 338 phasor~;
#X obj 24 359 *~;
#X obj 24 444 *~;
#X obj 39 423 sig~;
#X obj 544 84 text get waves;
#X obj 544 293 soundfiler;
#X obj 485 337 sig~;
#X obj 485 358 lop~ 60;
#X obj 485 379 phasor~;
#X obj 485 400 *~;
#X obj 485 485 *~;
#X obj 500 464 sig~;
#X obj 753 84 text get waves;
#X obj 753 293 soundfiler;
#X obj 694 337 sig~;
#X obj 694 358 lop~ 60;
#X obj 694 379 phasor~;
#X obj 694 400 *~;
#X obj 694 485 *~;
#X obj 709 464 sig~;
#X obj 309 88 text get waves;
#X obj 309 297 soundfiler;
#X obj 250 341 sig~;
#X obj 250 362 lop~ 60;
#X obj 250 383 phasor~;
#X obj 250 404 *~;
#X obj 250 489 *~;
#X obj 265 468 sig~;
#X obj 24 489 *~;
#X obj 52 464 line~ 10;
#X obj 250 534 *~;
#X obj 278 509 line~ 10;
#X obj 485 531 *~;
#X obj 513 506 line~ 10;
#X obj 694 530 *~;
#X obj 722 505 line~ 10;
#X obj 68 586 loadbang;
#X msg 68 607 1;
#X obj 613 605 loadbang;
#X msg 613 647 29;
#X obj 83 25 r formMod\$1Ind;
#X obj 114 116 s formMod\$1;
#X obj 24 275 r formModSpd\$1;
#X obj 24 380 tabread4~ formantMod\$1;
#X obj 39 402 r formMod\$1Mult;
#X obj 52 444 r formMod\$1Play;
#X obj 24 510 s~ formMod\$1Out;
#X obj 83 157 t s b;
#X obj 83 210 pack s f;
#X obj 128 190 f \$1;
#X obj 309 150 t s b;
#X obj 309 203 pack s f;
#X obj 354 183 f \$1;
#X obj 340 116 s crossMod\$1;
#X obj 309 25 r crossMod\$1Ind;
#X obj 250 320 r crossModSpd\$1;
#X obj 250 425 tabread4~ crossMod\$1;
#X obj 265 447 r crossMod\$1Mult;
#X obj 278 489 r crossMod\$1Play;
#X obj 250 556 s~ crossMod\$1Out;
#X obj 544 152 t s b;
#X obj 544 205 pack s f;
#X obj 589 185 f \$1;
#X obj 544 21 r panMod\$1Ind;
#X obj 575 112 s panMod\$1;
#X obj 485 316 r panModSpd\$1;
#X obj 485 421 tabread4~ panMod\$1;
#X obj 500 443 r panMod\$1Mult;
#X obj 513 486 r panMod\$1Play;
#X obj 485 552 s~ panMod\$1Out;
#X obj 753 159 t s b;
#X obj 753 212 pack s f;
#X obj 798 192 f \$1;
#X obj 753 21 r ampMod\$1Ind;
#X obj 784 112 s ampMod\$1;
#X obj 694 316 r ampModSpd\$1;
#X obj 694 421 tabread4~ ampMod\$1;
#X obj 709 443 r ampMod\$1Mult;
#X obj 722 485 r ampMod\$1Play;
#X obj 694 573 s~ ampMod\$1Out;
#X obj 88 710 s formModSpd\$1In;
#X obj 79 732 s formMod\$1MultIn;
#X obj 212 710 s crossModSpd\$1In;
#X obj 203 732 s crossMod\$1MultIn;
#X obj 337 711 s panModSpd\$1In;
#X obj 328 733 s panMod\$1MultIn;
#X obj 455 711 s ampModSpd\$1In;
#X obj 446 733 s ampMod\$1MultIn;
#X obj 643 769 s ampMod\$1IndIn;
#X obj 633 791 s panMod\$1IndIn;
#X obj 622 813 s crossMod\$1IndIn;
#X obj 613 836 s formMod\$1IndIn;
#X obj 694 551 expr~ if($v2 == 1 \, $v1 \, 1);
#X msg 753 272 read -resize \$1 ampMod\$2;
#X msg 544 272 read -resize \$1 panMod\$2;
#X msg 309 276 read -resize \$1 crossMod\$2;
#X msg 83 231 read -resize \$1 formantMod\$2;
#X obj 1014 61 text get waves;
#X obj 1014 208 soundfiler;
#X obj 955 252 sig~;
#X obj 955 273 lop~ 60;
#X obj 955 294 phasor~;
#X obj 955 315 *~;
#X obj 955 400 *~;
#X obj 970 379 sig~;
#X obj 955 445 *~;
#X obj 983 420 line~ 10;
#X obj 1014 113 t s b;
#X obj 1014 166 pack s f;
#X obj 1059 146 f \$1;
#X obj 1045 89 s scanAMod\$1;
#X obj 955 231 r scanAModSpd\$1;
#X obj 955 336 tabread4~ scanAMod\$1;
#X obj 970 358 r scanAMod\$1Mult;
#X obj 983 400 r scanAMod\$1Play;
#X obj 955 533 snapshot~;
#X obj 1048 477 metro 25;
#X obj 955 555 s scanAMod\$1Out;
#X obj 1014 38 r scanAMod\$1Ind;
#X msg 1014 187 read -resize \$1 scanAMod\$2;
#X obj 1219 63 text get waves;
#X obj 1219 210 soundfiler;
#X obj 1160 254 sig~;
#X obj 1160 275 lop~ 60;
#X obj 1160 296 phasor~;
#X obj 1160 317 *~;
#X obj 1160 402 *~;
#X obj 1175 381 sig~;
#X obj 1160 447 *~;
#X obj 1188 422 line~ 10;
#X obj 1219 115 t s b;
#X obj 1219 168 pack s f;
#X obj 1264 148 f \$1;
#X obj 1160 535 snapshot~;
#X obj 1253 479 metro 25;
#X obj 1219 40 r scanBMod\$1Ind;
#X obj 1250 91 s scanBMod\$1;
#X msg 1219 189 read -resize \$1 scanBMod\$2;
#X obj 1160 233 r scanBModSpd\$1;
#X obj 1160 338 tabread4~ scanBMod\$1;
#X obj 1175 360 r scanBMod\$1Mult;
#X obj 1188 402 r scanBMod\$1Play;
#X obj 1160 557 s scanBMod\$1Out;
#X obj 758 768 s scanAMod\$1IndIn;
#X obj 748 790 s scanBMod\$1IndIn;
#X obj 820 626 r rangeset;
#X obj 613 626 delay 100;
#X obj 134 791 s scanAModSpd\$1In;
#X obj 125 813 s scanAMod\$1MultIn;
#X obj 260 791 s scanBModSpd\$1In;
#X obj 251 813 s scanBMod\$1MultIn;
#X connect 0 0 45 0;
#X connect 0 0 51 0;
#X connect 1 0 5 1;
#X connect 2 0 3 0;
#X connect 3 0 4 0;
#X connect 4 0 5 0;
#X connect 5 0 47 0;
#X connect 6 0 32 0;
#X connect 7 0 6 1;
#X connect 8 0 64 0;
#X connect 8 0 68 0;
#X connect 9 0 13 1;
#X connect 10 0 11 0;
#X connect 11 0 12 0;
#X connect 12 0 13 0;
#X connect 13 0 70 0;
#X connect 14 0 36 0;
#X connect 15 0 14 1;
#X connect 16 0 74 0;
#X connect 16 0 78 0;
#X connect 17 0 21 1;
#X connect 18 0 19 0;
#X connect 19 0 20 0;
#X connect 20 0 21 0;
#X connect 21 0 80 0;
#X connect 22 0 38 0;
#X connect 23 0 22 1;
#X connect 24 0 54 0;
#X connect 24 0 57 0;
#X connect 25 0 29 1;
#X connect 26 0 27 0;
#X connect 27 0 28 0;
#X connect 28 0 29 0;
#X connect 29 0 60 0;
#X connect 30 0 34 0;
#X connect 31 0 30 1;
#X connect 32 0 50 0;
#X connect 33 0 32 1;
#X connect 34 0 63 0;
#X connect 35 0 34 1;
#X connect 36 0 73 0;
#X connect 37 0 36 1;
#X connect 38 0 96 0;
#X connect 39 0 38 1;
#X connect 39 0 96 1;
#X connect 40 0 41 0;
#X connect 41 0 84 0;
#X connect 41 0 85 0;
#X connect 41 0 86 0;
#X connect 41 0 87 0;
#X connect 41 0 88 0;
#X connect 41 0 89 0;
#X connect 41 0 90 0;
#X connect 41 0 91 0;
#X connect 41 0 152 0;
#X connect 41 0 151 0;
#X connect 41 0 154 0;
#X connect 41 0 153 0;
#X connect 42 0 150 0;
#X connect 43 0 92 0;
#X connect 43 0 93 0;
#X connect 43 0 94 0;
#X connect 43 0 95 0;
#X connect 43 0 147 0;
#X connect 43 0 148 0;
#X connect 44 0 0 0;
#X connect 46 0 2 0;
#X connect 47 0 6 0;
#X connect 48 0 7 0;
#X connect 49 0 33 0;
#X connect 51 0 52 0;
#X connect 51 1 53 0;
#X connect 52 0 100 0;
#X connect 53 0 52 1;
#X connect 54 0 55 0;
#X connect 54 1 56 0;
#X connect 55 0 99 0;
#X connect 56 0 55 1;
#X connect 58 0 24 0;
#X connect 59 0 26 0;
#X connect 60 0 30 0;
#X connect 61 0 31 0;
#X connect 62 0 35 0;
#X connect 64 0 65 0;
#X connect 64 1 66 0;
#X connect 65 0 98 0;
#X connect 66 0 65 1;
#X connect 67 0 8 0;
#X connect 69 0 10 0;
#X connect 70 0 14 0;
#X connect 71 0 15 0;
#X connect 72 0 37 0;
#X connect 74 0 75 0;
#X connect 74 1 76 0;
#X connect 75 0 97 0;
#X connect 76 0 75 1;
#X connect 77 0 16 0;
#X connect 79 0 18 0;
#X connect 80 0 22 0;
#X connect 81 0 23 0;
#X connect 82 0 39 0;
#X connect 96 0 83 0;
#X connect 97 0 17 0;
#X connect 98 0 9 0;
#X connect 99 0 25 0;
#X connect 100 0 1 0;
#X connect 101 0 111 0;
#X connect 101 0 114 0;
#X connect 102 0 106 1;
#X connect 103 0 104 0;
#X connect 104 0 105 0;
#X connect 105 0 106 0;
#X connect 106 0 116 0;
#X connect 107 0 109 0;
#X connect 108 0 107 1;
#X connect 109 0 119 0;
#X connect 110 0 109 1;
#X connect 111 0 112 0;
#X connect 111 1 113 0;
#X connect 112 0 123 0;
#X connect 113 0 112 1;
#X connect 115 0 103 0;
#X connect 116 0 107 0;
#X connect 117 0 108 0;
#X connect 118 0 110 0;
#X connect 118 0 120 0;
#X connect 119 0 121 0;
#X connect 120 0 119 0;
#X connect 122 0 101 0;
#X connect 123 0 102 0;
#X connect 124 0 134 0;
#X connect 124 0 140 0;
#X connect 125 0 129 1;
#X connect 126 0 127 0;
#X connect 127 0 128 0;
#X connect 128 0 129 0;
#X connect 129 0 143 0;
#X connect 130 0 132 0;
#X connect 131 0 130 1;
#X connect 132 0 137 0;
#X connect 133 0 132 1;
#X connect 134 0 135 0;
#X connect 134 1 136 0;
#X connect 135 0 141 0;
#X connect 136 0 135 1;
#X connect 137 0 146 0;
#X connect 138 0 137 0;
#X connect 139 0 124 0;
#X connect 141 0 125 0;
#X connect 142 0 126 0;
#X connect 143 0 130 0;
#X connect 144 0 131 0;
#X connect 145 0 133 0;
#X connect 145 0 138 0;
#X connect 149 0 92 0;
#X connect 149 0 93 0;
#X connect 149 0 94 0;
#X connect 149 0 95 0;
#X connect 149 0 147 0;
#X connect 149 0 148 0;
#X connect 150 0 43 0;
