#N canvas 0 71 1800 960 10;
#X obj 83 87 text get waves;
#X obj 83 251 soundfiler;
#X obj 24 295 sig~;
#X obj 24 316 lop~ 60;
#X obj 24 337 phasor~;
#X obj 24 358 *~;
#X obj 24 443 *~;
#X obj 39 422 sig~;
#X obj 453 86 text get waves;
#X obj 453 295 soundfiler;
#X obj 394 339 sig~;
#X obj 394 360 lop~ 60;
#X obj 394 381 phasor~;
#X obj 394 402 *~;
#X obj 394 487 *~;
#X obj 409 466 sig~;
#X obj 621 87 text get waves;
#X obj 621 296 soundfiler;
#X obj 562 340 sig~;
#X obj 562 361 lop~ 60;
#X obj 562 382 phasor~;
#X obj 562 403 *~;
#X obj 562 488 *~;
#X obj 577 467 sig~;
#X obj 266 86 text get waves;
#X obj 266 295 soundfiler;
#X obj 207 339 sig~;
#X obj 207 360 lop~ 60;
#X obj 207 381 phasor~;
#X obj 207 402 *~;
#X obj 207 487 *~;
#X obj 222 466 sig~;
#X obj 24 488 *~;
#X obj 52 463 line~ 10;
#X obj 207 532 *~;
#X obj 235 507 line~ 10;
#X obj 394 533 *~;
#X obj 422 508 line~ 10;
#X obj 562 533 *~;
#X obj 590 508 line~ 10;
#X msg 68 607 1;
#X msg 743 704 29;
#X obj 83 24 r formMod\$1Ind;
#X obj 114 115 s formMod\$1;
#X obj 24 274 r formModSpd\$1;
#X obj 24 379 tabread4~ formantMod\$1;
#X obj 39 401 r formMod\$1Mult;
#X obj 52 443 r formMod\$1Play;
#X obj 24 509 s~ formMod\$1Out;
#X obj 83 156 t s b;
#X obj 83 209 pack s f;
#X obj 128 189 f \$1;
#X obj 266 148 t s b;
#X obj 266 201 pack s f;
#X obj 311 181 f \$1;
#X obj 297 114 s crossMod\$1;
#X obj 266 23 r crossMod\$1Ind;
#X obj 207 318 r crossModSpd\$1;
#X obj 207 423 tabread4~ crossMod\$1;
#X obj 222 445 r crossMod\$1Mult;
#X obj 235 487 r crossMod\$1Play;
#X obj 207 554 s~ crossMod\$1Out;
#X obj 453 154 t s b;
#X obj 453 207 pack s f;
#X obj 498 187 f \$1;
#X obj 453 23 r panMod\$1Ind;
#X obj 484 114 s panMod\$1;
#X obj 394 318 r panModSpd\$1;
#X obj 394 423 tabread4~ panMod\$1;
#X obj 409 445 r panMod\$1Mult;
#X obj 422 488 r panMod\$1Play;
#X obj 394 554 s~ panMod\$1Out;
#X obj 621 162 t s b;
#X obj 621 215 pack s f;
#X obj 666 195 f \$1;
#X obj 621 24 r ampMod\$1Ind;
#X obj 652 115 s ampMod\$1;
#X obj 562 319 r ampModSpd\$1;
#X obj 562 424 tabread4~ ampMod\$1;
#X obj 577 446 r ampMod\$1Mult;
#X obj 590 488 r ampMod\$1Play;
#X obj 562 576 s~ ampMod\$1Out;
#X obj 88 710 s formModSpd\$1In;
#X obj 79 732 s formMod\$1MultIn;
#X obj 212 710 s crossModSpd\$1In;
#X obj 203 732 s crossMod\$1MultIn;
#X obj 337 711 s panModSpd\$1In;
#X obj 328 733 s panMod\$1MultIn;
#X obj 455 711 s ampModSpd\$1In;
#X obj 446 733 s ampMod\$1MultIn;
#X obj 773 826 s ampMod\$1IndIn;
#X obj 763 848 s panMod\$1IndIn;
#X obj 752 870 s crossMod\$1IndIn;
#X obj 743 893 s formMod\$1IndIn;
#X obj 562 554 expr~ if($v2 == 1 \, $v1 \, 1);
#X msg 621 275 read -resize \$1 ampMod\$2;
#X msg 453 274 read -resize \$1 panMod\$2;
#X msg 266 274 read -resize \$1 crossMod\$2;
#X msg 83 230 read -resize \$1 formantMod\$2;
#X obj 857 64 text get waves;
#X obj 857 211 soundfiler;
#X obj 798 255 sig~;
#X obj 798 276 lop~ 60;
#X obj 798 297 phasor~;
#X obj 798 318 *~;
#X obj 798 403 *~;
#X obj 813 382 sig~;
#X obj 798 448 *~;
#X obj 826 423 line~ 10;
#X obj 857 116 t s b;
#X obj 857 169 pack s f;
#X obj 902 149 f \$1;
#X obj 888 92 s scanAMod\$1;
#X obj 798 234 r scanAModSpd\$1;
#X obj 798 339 tabread4~ scanAMod\$1;
#X obj 813 361 r scanAMod\$1Mult;
#X obj 826 403 r scanAMod\$1Play;
#X obj 798 536 snapshot~;
#X obj 848 449 metro 25;
#X obj 798 588 s scanAMod\$1Out;
#X obj 857 41 r scanAMod\$1Ind;
#X msg 857 190 read -resize \$1 scanAMod\$2;
#X obj 1062 66 text get waves;
#X obj 1062 213 soundfiler;
#X obj 1003 257 sig~;
#X obj 1003 278 lop~ 60;
#X obj 1003 299 phasor~;
#X obj 1003 320 *~;
#X obj 1003 405 *~;
#X obj 1018 384 sig~;
#X obj 1003 450 *~;
#X obj 1031 425 line~ 10;
#X obj 1062 118 t s b;
#X obj 1062 171 pack s f;
#X obj 1107 151 f \$1;
#X obj 1003 538 snapshot~;
#X obj 1053 451 metro 25;
#X obj 1062 43 r scanBMod\$1Ind;
#X obj 1093 94 s scanBMod\$1;
#X msg 1062 192 read -resize \$1 scanBMod\$2;
#X obj 1003 341 tabread4~ scanBMod\$1;
#X obj 1018 363 r scanBMod\$1Mult;
#X obj 1031 405 r scanBMod\$1Play;
#X obj 1003 590 s scanBMod\$1Out;
#X obj 888 825 s scanAMod\$1IndIn;
#X obj 878 847 s scanBMod\$1IndIn;
#X obj 892 669 r rangeset;
#X obj 743 683 delay 100;
#X obj 134 791 s scanAModSpd\$1In;
#X obj 125 813 s scanAMod\$1MultIn;
#X obj 260 791 s scanBModSpd\$1In;
#X obj 251 813 s scanBMod\$1MultIn;
#X obj 1003 236 r scanBModSpd\$1;
#X obj 1249 104 text get waves;
#X obj 1249 313 soundfiler;
#X obj 1190 357 sig~;
#X obj 1190 378 lop~ 60;
#X obj 1190 399 phasor~;
#X obj 1190 420 *~;
#X obj 1190 505 *~;
#X obj 1205 484 sig~;
#X obj 1190 550 *~;
#X obj 1218 525 line~ 10;
#X obj 1249 179 t s b;
#X obj 1249 232 pack s f;
#X obj 1294 212 f \$1;
#X obj 1249 41 r fdbckMod\$1Ind;
#X obj 1280 132 s fdbckMod\$1;
#X msg 1249 292 read -resize \$1 fdbckMod\$2;
#X obj 1190 336 r fdbckModSpd\$1;
#X obj 1190 441 tabread4~ fdbckMod\$1;
#X obj 1205 463 r fdbckMod\$1Mult;
#X obj 1218 505 r fdbckMod\$1Play;
#X obj 1190 593 s~ fdbckMod\$1Out;
#X obj 1468 110 text get waves;
#X obj 1468 319 soundfiler;
#X obj 1409 363 sig~;
#X obj 1409 384 lop~ 60;
#X obj 1409 405 phasor~;
#X obj 1409 426 *~;
#X obj 1409 511 *~;
#X obj 1424 490 sig~;
#X obj 1409 556 *~;
#X obj 1437 531 line~ 10;
#X obj 1468 185 t s b;
#X obj 1468 238 pack s f;
#X obj 1513 218 f \$1;
#X obj 1468 47 r delMod\$1Ind;
#X obj 1499 138 s delMod\$1;
#X msg 1468 298 read -resize \$1 delMod\$2;
#X obj 1409 342 r delModSpd\$1;
#X obj 1409 447 tabread4~ delMod\$1;
#X obj 1424 469 r delMod\$1Mult;
#X obj 1437 511 r delMod\$1Play;
#X obj 1409 599 s~ delMod\$1Out;
#X obj 1409 577 expr~ if($v2 == 1 \, $v1 \, 0);
#X obj 1190 571 expr~ if($v2 == 1 \, $v1 \, 0);
#X obj 422 793 s fdbckModSpd\$1In;
#X obj 413 815 s fdbckMod\$1MultIn;
#X obj 553 797 s delModSpd\$1In;
#X obj 544 819 s delMod\$1MultIn;
#X obj 942 873 s fdbckMod\$1IndIn;
#X obj 932 895 s fdbckMod\$1IndIn;
#X obj 1596 455 text get waves;
#X obj 1596 640 soundfiler;
#X obj 1537 684 sig~;
#X obj 1537 705 lop~ 60;
#X obj 1537 748 *~;
#X obj 1537 833 *~;
#X obj 1552 812 sig~;
#X obj 1537 878 *~;
#X obj 1565 853 line~ 10;
#X obj 1537 726 phasor~;
#X obj 1596 432 r fundMod\$1Ind;
#X obj 1627 483 s fundMod\$1;
#X obj 1596 514 t s b;
#X obj 1596 575 pack s f;
#X obj 1641 553 f \$1;
#X msg 1596 619 read -resize \$1 fundamentalMod\$2;
#X obj 1537 663 r fundModSpd\$1;
#X obj 1537 769 tabread4~ fundamentalMod\$1;
#X obj 1552 791 r fundMod\$1Mult;
#X obj 1565 833 r fundMod\$1Play;
#X obj 1537 899 s~ fundMod\$1Out;
#X obj 1178 840 s fundMod\$1IndIn;
#X obj 1035 821 s delMod\$1IndIn;
#X obj 1025 843 s delMod\$1IndIn;
#X text 68 588 old init system \, replaced with presets;
#X text 626 662 old init system \, replaced with presets;
#X obj 798 557 expr if($f2 == 0 \, 0 \, $f1);
#X obj 1003 559 expr if($f2 == 0 \, 0 \, $f1);
#X obj 918 506 t b f;
#X obj 1123 501 t b f;
#X floatatom 1022 664 5 0 0 0 - - - 0;
#X connect 0 0 43 0;
#X connect 0 0 49 0;
#X connect 1 0 5 1;
#X connect 2 0 3 0;
#X connect 3 0 4 0;
#X connect 4 0 5 0;
#X connect 5 0 45 0;
#X connect 6 0 32 0;
#X connect 7 0 6 1;
#X connect 8 0 62 0;
#X connect 8 0 66 0;
#X connect 9 0 13 1;
#X connect 10 0 11 0;
#X connect 11 0 12 0;
#X connect 12 0 13 0;
#X connect 13 0 68 0;
#X connect 14 0 36 0;
#X connect 15 0 14 1;
#X connect 16 0 72 0;
#X connect 16 0 76 0;
#X connect 17 0 21 1;
#X connect 18 0 19 0;
#X connect 19 0 20 0;
#X connect 20 0 21 0;
#X connect 21 0 78 0;
#X connect 22 0 38 0;
#X connect 23 0 22 1;
#X connect 24 0 52 0;
#X connect 24 0 55 0;
#X connect 25 0 29 1;
#X connect 26 0 27 0;
#X connect 27 0 28 0;
#X connect 28 0 29 0;
#X connect 29 0 58 0;
#X connect 30 0 34 0;
#X connect 31 0 30 1;
#X connect 32 0 48 0;
#X connect 33 0 32 1;
#X connect 34 0 61 0;
#X connect 35 0 34 1;
#X connect 36 0 71 0;
#X connect 37 0 36 1;
#X connect 38 0 94 0;
#X connect 39 0 38 1;
#X connect 39 0 94 1;
#X connect 40 0 82 0;
#X connect 40 0 83 0;
#X connect 40 0 84 0;
#X connect 40 0 85 0;
#X connect 40 0 86 0;
#X connect 40 0 87 0;
#X connect 40 0 88 0;
#X connect 40 0 89 0;
#X connect 40 0 149 0;
#X connect 40 0 148 0;
#X connect 40 0 151 0;
#X connect 40 0 150 0;
#X connect 40 0 197 0;
#X connect 40 0 198 0;
#X connect 40 0 200 0;
#X connect 40 0 199 0;
#X connect 41 0 90 0;
#X connect 41 0 91 0;
#X connect 41 0 92 0;
#X connect 41 0 93 0;
#X connect 41 0 144 0;
#X connect 41 0 145 0;
#X connect 41 0 202 0;
#X connect 41 0 201 0;
#X connect 41 0 225 0;
#X connect 41 0 226 0;
#X connect 42 0 0 0;
#X connect 44 0 2 0;
#X connect 45 0 6 0;
#X connect 46 0 7 0;
#X connect 47 0 33 0;
#X connect 49 0 50 0;
#X connect 49 1 51 0;
#X connect 50 0 98 0;
#X connect 51 0 50 1;
#X connect 52 0 53 0;
#X connect 52 1 54 0;
#X connect 53 0 97 0;
#X connect 54 0 53 1;
#X connect 56 0 24 0;
#X connect 57 0 26 0;
#X connect 58 0 30 0;
#X connect 59 0 31 0;
#X connect 60 0 35 0;
#X connect 62 0 63 0;
#X connect 62 1 64 0;
#X connect 63 0 96 0;
#X connect 64 0 63 1;
#X connect 65 0 8 0;
#X connect 67 0 10 0;
#X connect 68 0 14 0;
#X connect 69 0 15 0;
#X connect 70 0 37 0;
#X connect 72 0 73 0;
#X connect 72 1 74 0;
#X connect 73 0 95 0;
#X connect 74 0 73 1;
#X connect 75 0 16 0;
#X connect 77 0 18 0;
#X connect 78 0 22 0;
#X connect 79 0 23 0;
#X connect 80 0 39 0;
#X connect 94 0 81 0;
#X connect 95 0 17 0;
#X connect 96 0 9 0;
#X connect 97 0 25 0;
#X connect 98 0 1 0;
#X connect 99 0 109 0;
#X connect 99 0 112 0;
#X connect 100 0 104 1;
#X connect 101 0 102 0;
#X connect 102 0 103 0;
#X connect 103 0 104 0;
#X connect 104 0 114 0;
#X connect 105 0 107 0;
#X connect 106 0 105 1;
#X connect 107 0 117 0;
#X connect 108 0 107 1;
#X connect 109 0 110 0;
#X connect 109 1 111 0;
#X connect 110 0 121 0;
#X connect 111 0 110 1;
#X connect 113 0 101 0;
#X connect 114 0 105 0;
#X connect 115 0 106 0;
#X connect 116 0 108 0;
#X connect 116 0 118 0;
#X connect 116 0 231 0;
#X connect 117 0 229 0;
#X connect 118 0 117 0;
#X connect 120 0 99 0;
#X connect 121 0 100 0;
#X connect 122 0 132 0;
#X connect 122 0 138 0;
#X connect 123 0 127 1;
#X connect 124 0 125 0;
#X connect 125 0 126 0;
#X connect 126 0 127 0;
#X connect 127 0 140 0;
#X connect 128 0 130 0;
#X connect 129 0 128 1;
#X connect 130 0 135 0;
#X connect 131 0 130 1;
#X connect 132 0 133 0;
#X connect 132 1 134 0;
#X connect 133 0 139 0;
#X connect 134 0 133 1;
#X connect 135 0 230 0;
#X connect 136 0 135 0;
#X connect 137 0 122 0;
#X connect 139 0 123 0;
#X connect 140 0 128 0;
#X connect 141 0 129 0;
#X connect 142 0 131 0;
#X connect 142 0 136 0;
#X connect 142 0 232 0;
#X connect 146 0 90 0;
#X connect 146 0 91 0;
#X connect 146 0 92 0;
#X connect 146 0 93 0;
#X connect 146 0 144 0;
#X connect 146 0 145 0;
#X connect 146 0 202 0;
#X connect 146 0 201 0;
#X connect 146 0 224 0;
#X connect 146 0 225 0;
#X connect 146 0 226 0;
#X connect 147 0 41 0;
#X connect 152 0 124 0;
#X connect 153 0 163 0;
#X connect 153 0 167 0;
#X connect 154 0 158 1;
#X connect 155 0 156 0;
#X connect 156 0 157 0;
#X connect 157 0 158 0;
#X connect 158 0 170 0;
#X connect 159 0 161 0;
#X connect 160 0 159 1;
#X connect 161 0 196 0;
#X connect 162 0 161 1;
#X connect 162 0 196 1;
#X connect 163 0 164 0;
#X connect 163 1 165 0;
#X connect 164 0 168 0;
#X connect 165 0 164 1;
#X connect 166 0 153 0;
#X connect 168 0 154 0;
#X connect 169 0 155 0;
#X connect 170 0 159 0;
#X connect 171 0 160 0;
#X connect 172 0 162 0;
#X connect 174 0 184 0;
#X connect 174 0 188 0;
#X connect 175 0 179 1;
#X connect 176 0 177 0;
#X connect 177 0 178 0;
#X connect 178 0 179 0;
#X connect 179 0 191 0;
#X connect 180 0 182 0;
#X connect 181 0 180 1;
#X connect 182 0 195 0;
#X connect 183 0 182 1;
#X connect 183 0 195 1;
#X connect 184 0 185 0;
#X connect 184 1 186 0;
#X connect 185 0 189 0;
#X connect 186 0 185 1;
#X connect 187 0 174 0;
#X connect 189 0 175 0;
#X connect 190 0 176 0;
#X connect 191 0 180 0;
#X connect 192 0 181 0;
#X connect 193 0 183 0;
#X connect 195 0 194 0;
#X connect 196 0 173 0;
#X connect 203 0 214 0;
#X connect 203 0 215 0;
#X connect 204 0 207 1;
#X connect 205 0 206 0;
#X connect 206 0 212 0;
#X connect 207 0 220 0;
#X connect 208 0 210 0;
#X connect 209 0 208 1;
#X connect 210 0 223 0;
#X connect 211 0 210 1;
#X connect 212 0 207 0;
#X connect 213 0 203 0;
#X connect 215 0 216 0;
#X connect 215 1 217 0;
#X connect 216 0 218 0;
#X connect 217 0 216 1;
#X connect 218 0 204 0;
#X connect 219 0 205 0;
#X connect 220 0 208 0;
#X connect 221 0 209 0;
#X connect 222 0 211 0;
#X connect 229 0 119 0;
#X connect 230 0 143 0;
#X connect 230 0 233 0;
#X connect 231 0 229 0;
#X connect 231 1 229 1;
#X connect 232 0 230 0;
#X connect 232 1 230 1;
