#N canvas 33 220 1626 867 10;
#X obj 37 420 ctlin, f 17;
#X obj 86 488 expr if($f1 == $f2 && $f3 == $f4 \, 1 \, 0), f 17;
#X obj 37 544 spigot;
#X obj 37 565 expr ($f1/127) * 32;
#X obj 275 470 spigot;
#X obj 223 420 ctlin, f 18;
#X obj 369 470 spigot;
#X obj 275 491 t b f;
#X obj 344 441 t f f;
#X obj 37 618 ctlin, f 17;
#X obj 86 686 expr if($f1 == $f2 && $f3 == $f4 \, 1 \, 0), f 17;
#X obj 37 742 spigot;
#X obj 275 668 spigot;
#X obj 223 618 ctlin, f 18;
#X obj 369 668 spigot;
#X obj 275 689 t b f;
#X obj 344 639 t f f;
#X obj 640 354 ctlin, f 17;
#X obj 689 422 expr if($f1 == $f2 && $f3 == $f4 \, 1 \, 0), f 17;
#X obj 640 478 spigot;
#X obj 878 404 spigot;
#X obj 826 354 ctlin, f 18;
#X obj 972 404 spigot;
#X obj 878 425 t b f;
#X obj 947 375 t f f;
#X obj 640 499 expr (($f1/127) * 2) - 1;
#X obj 640 543 ctlin, f 17;
#X obj 689 611 expr if($f1 == $f2 && $f3 == $f4 \, 1 \, 0), f 17;
#X obj 640 667 spigot;
#X obj 878 593 spigot;
#X obj 826 543 ctlin, f 18;
#X obj 972 593 spigot;
#X obj 878 614 t b f;
#X obj 947 564 t f f;
#X obj 640 688 expr ($f1/127);
#X obj 1164 24 ctlin, f 17;
#X obj 1213 92 expr if($f1 == $f2 && $f3 == $f4 \, 1 \, 0), f 17;
#X obj 1164 148 spigot;
#X obj 1408 74 spigot;
#X obj 1356 24 ctlin, f 18;
#X obj 1502 74 spigot;
#X obj 1408 95 t b f;
#X obj 1477 45 t f f;
#X obj 1164 236 ctlin, f 17;
#X obj 1213 304 expr if($f1 == $f2 && $f3 == $f4 \, 1 \, 0), f 17;
#X obj 1164 360 spigot;
#X obj 1408 286 spigot;
#X obj 1356 236 ctlin, f 18;
#X obj 1502 286 spigot;
#X obj 1408 307 t b f;
#X obj 1477 257 t f f;
#X obj 639 749 ctlin, f 17;
#X obj 688 817 expr if($f1 == $f2 && $f3 == $f4 \, 1 \, 0), f 17;
#X obj 639 873 spigot;
#X obj 883 799 spigot;
#X obj 831 749 ctlin, f 18;
#X obj 977 799 spigot;
#X obj 883 820 t b f;
#X obj 952 770 t f f;
#X obj 639 894 expr ($f1 / 127) * 10;
#X obj 1164 190 i;
#X obj 1164 402 i;
#X obj 1164 169 expr ($f1 / 127) * 16 + 1;
#X obj 1164 381 expr ($f1 / 127) * 16 + 1;
#X obj 1253 866 spigot;
#X obj 1253 800 notein, f 10;
#X obj 1310 821 expr if($f1 == $f2 \, 1 \, 0), f 14;
#X obj 1253 887 mtof;
#X obj 37 818 ctlin, f 17;
#X obj 86 897 expr if($f1 == $f2 && $f3 == $f4 \, 1 \, 0), f 17;
#X obj 37 953 spigot;
#X obj 310 868 spigot;
#X obj 258 818 ctlin, f 18;
#X obj 404 868 spigot;
#X obj 310 889 t b f;
#X obj 379 839 t f f;
#X obj 37 974 expr ($f1/127) * 24;
#X obj 527 71 ctlin, f 17;
#X obj 576 150 expr if($f1 == $f2 && $f3 == $f4 \, 1 \, 0), f 17;
#X obj 527 206 spigot;
#X obj 800 121 spigot;
#X obj 748 71 ctlin, f 18;
#X obj 894 121 spigot;
#X obj 800 142 t b f;
#X obj 869 92 t f f;
#X obj 527 227 expr (($f1/127) * 114) + 6;
#X obj 38 22 ctlin, f 17;
#X obj 87 90 expr if($f1 == $f2 && $f3 == $f4 \, 1 \, 0), f 17;
#X obj 38 146 spigot;
#X obj 276 72 spigot;
#X obj 224 22 ctlin, f 18;
#X obj 370 72 spigot;
#X obj 276 93 t b f;
#X obj 345 43 t f f;
#X obj 38 167 expr (($f1/127) * 2) - 1;
#X obj 39 216 ctlin, f 17;
#X obj 88 284 expr if($f1 == $f2 && $f3 == $f4 \, 1 \, 0), f 17;
#X obj 39 340 spigot;
#X obj 277 266 spigot;
#X obj 225 216 ctlin, f 18;
#X obj 371 266 spigot;
#X obj 277 287 t b f;
#X obj 346 237 t f f;
#X obj 39 361 expr (($f1/127) * 2) - 1;
#X obj 119 443 r form\$1cc;
#X obj 37 586 s formant\$1In;
#X obj 185 467 r form\$1chn;
#X obj 344 420 r form\$1Learn;
#X obj 369 491 s form\$1chnIn;
#X obj 302 512 s form\$1ccIn;
#X obj 275 532 s form\$1LearnIn;
#X obj 119 641 r cross\$1cc;
#X obj 185 665 r cross\$1chn;
#X obj 37 784 s cross\$1In;
#X obj 344 618 r cross\$1Learn;
#X obj 369 689 s cross\$1chnIn;
#X obj 302 710 s cross\$1ccIn;
#X obj 275 730 s cross\$1LearnIn;
#X obj 722 377 r pan\$1cc;
#X obj 788 401 r pan\$1chn;
#X obj 640 520 s pan\$1In;
#X obj 947 354 r pan\$1Learn;
#X obj 972 425 s pan\$1chnIn;
#X obj 905 446 s pan\$1ccIn;
#X obj 878 466 s pan\$1LearnIn;
#X obj 722 566 r amp\$1cc;
#X obj 788 590 r amp\$1chn;
#X obj 640 709 s amp\$1In;
#X obj 947 543 r amp\$1Learn;
#X obj 972 614 s amp\$1chnIn;
#X obj 905 635 s amp\$1ccIn;
#X obj 878 655 s amp\$1LearnIn;
#X obj 721 772 r prob\$1cc;
#X obj 787 796 r prob\$1chn;
#X obj 639 915 s prob\$1aIn;
#X obj 952 749 r prob\$1Learn;
#X obj 977 820 s prob\$1chnIn;
#X obj 910 841 s prob\$1ccIn;
#X obj 883 861 s prob\$1LearnIn;
#X obj 1246 47 r ratioa\$1cc;
#X obj 1312 71 r ratioa\$1chn;
#X obj 1164 211 s ratio\$1aIn;
#X obj 1477 24 r ratioa\$1Learn;
#X obj 1502 95 s ratioa\$1chnIn;
#X obj 1435 116 s ratioa\$1ccIn;
#X obj 1408 136 s ratioa\$1LearnIn;
#X obj 1246 259 r ratiob\$1cc;
#X obj 1312 283 r ratiob\$1chn;
#X obj 1477 236 r ratiob\$1Learn;
#X obj 1502 307 s ratiob\$1chnIn;
#X obj 1435 328 s ratiob\$1ccIn;
#X obj 1408 348 s ratiob\$1LearnIn;
#X obj 1391 800 r fund\$1chn;
#X obj 1253 908 s fund\$1In;
#X obj 345 22 r scanA\$1Learn;
#X obj 370 93 s scanA\$1chnIn;
#X obj 303 114 s scanA\$1ccIn;
#X obj 276 134 s scanA\$1LearnIn;
#X obj 120 45 r scanA\$1cc;
#X obj 346 216 r scanB\$1Learn;
#X obj 371 287 s scanB\$1chnIn;
#X obj 304 308 s scanB\$1ccIn;
#X obj 277 328 s scanB\$1LearnIn;
#X obj 121 239 r scanB\$1cc;
#X obj 187 263 r scanB\$1chn;
#X obj 869 71 r del\$1Learn;
#X obj 894 142 s del\$1chnIn;
#X obj 827 163 s del\$1ccIn;
#X obj 800 184 s del\$1LearnIn;
#X obj 609 94 r del\$1cc;
#X obj 379 818 r fdbck\$1Learn;
#X obj 404 889 s fdbck\$1chnIn;
#X obj 337 910 s fdbck\$1ccIn;
#X obj 310 931 s fdbck\$1LearnIn;
#X obj 119 841 r fdbck\$1cc;
#X obj 37 995 s feedbackAmount\$1In;
#X obj 527 248 s feedbackTime\$1In;
#X obj 186 69 r scanA\$1chn;
#X floatatom 217 171 5 0 0 0 - - - 0;
#X obj 38 188 s scan\$1aIn;
#X obj 39 382 s scan\$1bIn;
#X obj 37 763 expr ($f1/127) * 4096;
#X obj 185 865 r fdbck\$1chn;
#X obj 675 118 r del\$1chn;
#X obj 1164 423 s ratio\$1bIn;
#X obj 1165 452 ctlin, f 17;
#X obj 1214 520 expr if($f1 == $f2 && $f3 == $f4 \, 1 \, 0), f 17;
#X obj 1165 576 spigot;
#X obj 1409 502 spigot;
#X obj 1357 452 ctlin, f 18;
#X obj 1503 502 spigot;
#X obj 1409 523 t b f;
#X obj 1478 473 t f f;
#X obj 1165 618 i;
#X obj 1165 597 expr ($f1 / 127) * 16 + 1;
#X obj 1247 475 r ratioc\$1cc;
#X obj 1478 452 r ratioc\$1Learn;
#X obj 1503 523 s ratioc\$1chnIn;
#X obj 1436 544 s ratioc\$1ccIn;
#X obj 1409 564 s ratioc\$1LearnIn;
#X obj 1313 499 r ratioc\$1chn;
#X obj 1165 639 s ratio\$1cIn;
#X connect 0 0 2 0;
#X connect 0 1 1 0;
#X connect 0 2 1 2;
#X connect 1 0 2 1;
#X connect 2 0 3 0;
#X connect 3 0 105 0;
#X connect 4 0 7 0;
#X connect 5 1 4 0;
#X connect 5 2 6 0;
#X connect 6 0 108 0;
#X connect 7 0 110 0;
#X connect 7 1 109 0;
#X connect 8 0 4 1;
#X connect 8 1 6 1;
#X connect 9 0 11 0;
#X connect 9 1 10 0;
#X connect 9 2 10 2;
#X connect 10 0 11 1;
#X connect 11 0 181 0;
#X connect 12 0 15 0;
#X connect 13 1 12 0;
#X connect 13 2 14 0;
#X connect 14 0 115 0;
#X connect 15 0 117 0;
#X connect 15 1 116 0;
#X connect 16 0 12 1;
#X connect 16 1 14 1;
#X connect 17 0 19 0;
#X connect 17 1 18 0;
#X connect 17 2 18 2;
#X connect 18 0 19 1;
#X connect 19 0 25 0;
#X connect 20 0 23 0;
#X connect 21 1 20 0;
#X connect 21 2 22 0;
#X connect 22 0 122 0;
#X connect 23 0 124 0;
#X connect 23 1 123 0;
#X connect 24 0 20 1;
#X connect 24 1 22 1;
#X connect 25 0 120 0;
#X connect 26 0 28 0;
#X connect 26 1 27 0;
#X connect 26 2 27 2;
#X connect 27 0 28 1;
#X connect 28 0 34 0;
#X connect 29 0 32 0;
#X connect 30 1 29 0;
#X connect 30 2 31 0;
#X connect 31 0 129 0;
#X connect 32 0 131 0;
#X connect 32 1 130 0;
#X connect 33 0 29 1;
#X connect 33 1 31 1;
#X connect 34 0 127 0;
#X connect 35 0 37 0;
#X connect 35 1 36 0;
#X connect 35 2 36 2;
#X connect 36 0 37 1;
#X connect 37 0 62 0;
#X connect 38 0 41 0;
#X connect 39 1 38 0;
#X connect 39 2 40 0;
#X connect 40 0 143 0;
#X connect 41 0 145 0;
#X connect 41 1 144 0;
#X connect 42 0 38 1;
#X connect 42 1 40 1;
#X connect 43 0 45 0;
#X connect 43 1 44 0;
#X connect 43 2 44 2;
#X connect 44 0 45 1;
#X connect 45 0 63 0;
#X connect 46 0 49 0;
#X connect 47 1 46 0;
#X connect 47 2 48 0;
#X connect 48 0 149 0;
#X connect 49 0 151 0;
#X connect 49 1 150 0;
#X connect 50 0 46 1;
#X connect 50 1 48 1;
#X connect 51 0 53 0;
#X connect 51 1 52 0;
#X connect 51 2 52 2;
#X connect 52 0 53 1;
#X connect 53 0 59 0;
#X connect 54 0 57 0;
#X connect 55 1 54 0;
#X connect 55 2 56 0;
#X connect 56 0 136 0;
#X connect 57 0 138 0;
#X connect 57 1 137 0;
#X connect 58 0 54 1;
#X connect 58 1 56 1;
#X connect 59 0 134 0;
#X connect 60 0 141 0;
#X connect 61 0 184 0;
#X connect 62 0 60 0;
#X connect 63 0 61 0;
#X connect 64 0 67 0;
#X connect 65 0 64 0;
#X connect 65 2 66 0;
#X connect 66 0 64 1;
#X connect 67 0 153 0;
#X connect 68 0 70 0;
#X connect 68 1 69 0;
#X connect 68 2 69 2;
#X connect 69 0 70 1;
#X connect 70 0 76 0;
#X connect 71 0 74 0;
#X connect 72 1 71 0;
#X connect 72 2 73 0;
#X connect 73 0 171 0;
#X connect 74 0 173 0;
#X connect 74 1 172 0;
#X connect 75 0 71 1;
#X connect 75 1 73 1;
#X connect 76 0 175 0;
#X connect 77 0 79 0;
#X connect 77 1 78 0;
#X connect 77 2 78 2;
#X connect 78 0 79 1;
#X connect 79 0 85 0;
#X connect 80 0 83 0;
#X connect 81 1 80 0;
#X connect 81 2 82 0;
#X connect 82 0 166 0;
#X connect 83 0 168 0;
#X connect 83 1 167 0;
#X connect 84 0 80 1;
#X connect 84 1 82 1;
#X connect 85 0 176 0;
#X connect 86 0 88 0;
#X connect 86 1 87 0;
#X connect 86 2 87 2;
#X connect 87 0 88 1;
#X connect 88 0 94 0;
#X connect 89 0 92 0;
#X connect 90 1 89 0;
#X connect 90 2 91 0;
#X connect 91 0 155 0;
#X connect 92 0 157 0;
#X connect 92 1 156 0;
#X connect 93 0 89 1;
#X connect 93 1 91 1;
#X connect 94 0 178 0;
#X connect 94 0 179 0;
#X connect 95 0 97 0;
#X connect 95 1 96 0;
#X connect 95 2 96 2;
#X connect 96 0 97 1;
#X connect 97 0 103 0;
#X connect 98 0 101 0;
#X connect 99 1 98 0;
#X connect 99 2 100 0;
#X connect 100 0 160 0;
#X connect 101 0 162 0;
#X connect 101 1 161 0;
#X connect 102 0 98 1;
#X connect 102 1 100 1;
#X connect 103 0 180 0;
#X connect 104 0 1 1;
#X connect 106 0 1 3;
#X connect 107 0 8 0;
#X connect 111 0 10 1;
#X connect 112 0 10 3;
#X connect 114 0 16 0;
#X connect 118 0 18 1;
#X connect 119 0 18 3;
#X connect 121 0 24 0;
#X connect 125 0 27 1;
#X connect 126 0 27 3;
#X connect 128 0 33 0;
#X connect 132 0 52 1;
#X connect 133 0 52 3;
#X connect 135 0 58 0;
#X connect 139 0 36 1;
#X connect 140 0 36 3;
#X connect 142 0 42 0;
#X connect 146 0 44 1;
#X connect 147 0 44 3;
#X connect 148 0 50 0;
#X connect 152 0 66 1;
#X connect 154 0 93 0;
#X connect 158 0 87 1;
#X connect 159 0 102 0;
#X connect 163 0 96 1;
#X connect 164 0 96 3;
#X connect 165 0 84 0;
#X connect 169 0 78 1;
#X connect 170 0 75 0;
#X connect 174 0 69 1;
#X connect 177 0 87 3;
#X connect 181 0 113 0;
#X connect 182 0 69 3;
#X connect 183 0 78 3;
#X connect 185 0 187 0;
#X connect 185 1 186 0;
#X connect 185 2 186 2;
#X connect 186 0 187 1;
#X connect 187 0 194 0;
#X connect 188 0 191 0;
#X connect 189 1 188 0;
#X connect 189 2 190 0;
#X connect 190 0 197 0;
#X connect 191 0 199 0;
#X connect 191 1 198 0;
#X connect 192 0 188 1;
#X connect 192 1 190 1;
#X connect 193 0 201 0;
#X connect 194 0 193 0;
#X connect 195 0 186 1;
#X connect 196 0 192 0;
#X connect 200 0 186 3;
