#N canvas 772 368 612 322 10;
#X text 13 16 \$1 - preset 'collection' number (e.g. 1 \, 2 \, 3);
#X text 13 29 \$2 - modulator keyword (e.g. 'amp' for 'ampModSpd\$1');
#X obj 20 206 pack f s;
#X obj 20 140 t f b;
#X obj 157 204 pack f s;
#X obj 157 138 t f b;
#X obj 290 204 pack f s;
#X obj 289 138 t f b;
#X obj 433 204 pack f s;
#X obj 433 138 t f b;
#X obj 20 119 r \$2ModSpd\$1;
#X obj 65 174 symbol \$2ModSpd\$1, f 12;
#X obj 157 117 r \$2Mod\$1Ind;
#X obj 202 172 symbol \$2Mod\$1Ind, f 12;
#X obj 290 117 r \$2Mod\$1Mult;
#X obj 335 172 symbol \$2Mod\$1Mult, f 13;
#X obj 433 117 r \$2Mod\$1Play;
#X obj 20 268 outlet;
#X text 23 60 for receiving modulator window settings for preset saves;
#X obj 478 172 symbol \$2Mod\$1Play, f 13;
#X connect 2 0 17 0;
#X connect 3 0 2 0;
#X connect 3 1 11 0;
#X connect 4 0 17 0;
#X connect 5 0 4 0;
#X connect 5 1 13 0;
#X connect 6 0 17 0;
#X connect 7 0 6 0;
#X connect 7 1 15 0;
#X connect 8 0 17 0;
#X connect 9 0 8 0;
#X connect 9 1 19 0;
#X connect 10 0 3 0;
#X connect 11 0 2 1;
#X connect 12 0 5 0;
#X connect 13 0 4 1;
#X connect 14 0 7 0;
#X connect 15 0 6 1;
#X connect 16 0 9 0;
#X connect 19 0 8 1;
