#N canvas 31 45 1561 1042 10;
#X obj 560 670 text get waves;
#X obj 560 803 soundfiler;
#X obj 295 757 bng 16 250 50 0 empty empty 3.\ add\ points\ in\ dataset 0 -8 0 10 #fcfcfc #000000 #000000;
#X obj 326 778 + 1;
#X msg 295 799 symbol point-\$1;
#X obj 295 778 f 0;
#X msg 124 671 clear;
#X floatatom 442 673 7 0 0 0 - - - 0;
#X floatatom 47 452 5 0 0 0 - - - 0;
#X obj 47 472 t b f;
#X obj 417 384 tgl 16 0 empty empty empty 0 -8 0 10 #fcfcfc #000000 #000000 0 1;
#X obj 446 480 + 1;
#X obj 417 480 f 1;
#X obj 442 631 * 2;
#X obj 442 652 - 1;
#X obj 417 405 metro 50;
#X obj 295 657 delay 25;
#X floatatom 560 649 5 0 0 0 - - - 0;
#X obj 417 501 t b f b f, f 13;
#X obj 85 880 print;
#X obj 85 859 route fit;
#X msg 508 401 0;
#X obj 544 455 sel 3;
#X obj 442 610 / 3;
#X msg 353 687 clear;
#X obj 544 476 delay 50;
#X obj 417 9 loadbang;
#X obj 1315 676 text get waves;
#X obj 1315 792 soundfiler;
#X obj 1050 763 bng 16 250 50 0 empty empty 3.\ add\ points\ in\ dataset 0 -8 0 10 #fcfcfc #000000 #000000;
#X obj 1081 784 + 1;
#X msg 1050 805 symbol point-\$1;
#X obj 1050 784 f 0;
#X msg 879 677 clear;
#X floatatom 1197 679 7 0 0 0 - - - 0;
#X floatatom 802 477 5 0 0 0 - - - 0;
#X obj 802 497 t b f;
#X obj 1172 456 tgl 16 0 empty empty empty 0 -8 0 10 #fcfcfc #000000 #000000 0 1;
#X obj 1201 503 + 1;
#X obj 1172 503 f 1;
#X obj 1197 637 * 2;
#X obj 1197 658 - 1;
#X obj 1172 477 metro 50;
#X obj 1050 663 delay 25;
#X floatatom 1315 655 5 0 0 0 - - - 0;
#X obj 1172 524 t b f b f, f 13;
#X obj 840 886 print;
#X obj 840 865 route fit;
#X msg 1263 473 0;
#X obj 1299 506 sel 3;
#X obj 1197 616 / 3;
#X msg 1108 693 clear;
#X obj 1299 527 delay 50;
#X obj 47 297 r scan\$1a;
#X obj 74 493 array set x\$1a;
#X obj 47 521 f \$1;
#X msg 47 541 predictpoint x\$1a pulsaret\$1;
#X obj 544 497 f \$1;
#X obj 560 691 t s b;
#X obj 560 761 pack s f;
#X obj 587 712 f \$1;
#X obj 560 834 array define waveform\$1a 4096;
#X obj 422 782 array define x\$1a 1;
#X obj 295 820 t s b;
#X obj 295 868 pack s f;
#X obj 340 847 f \$1;
#X msg 295 888 addpoint \$1 x\$2a;
#X msg 403 939 addpoint \$1 waveform\$2a;
#X obj 295 909 fluid.dataset xData\$1a;
#X obj 403 960 fluid.dataset waveformData\$1a;
#X obj 442 692 array set x\$1a;
#X obj 479 9 r newNet\$1;
#X obj 829 518 array set x\$1b;
#X obj 802 543 f \$1;
#X msg 802 564 predictpoint x\$1b envelope\$1;
#X msg 85 651 fit xData\$1a waveformData\$1a;
#X obj 1299 548 f \$1;
#X msg 840 657 fit xData\$1b waveformData\$1b;
#X obj 1050 827 t s b;
#X obj 1050 875 pack s f;
#X obj 1095 854 f \$1;
#X msg 1050 903 addpoint \$1 x\$2b;
#X obj 1050 924 fluid.dataset xData\$1b;
#X msg 1148 949 addpoint \$1 waveform\$2b;
#X obj 1148 970 fluid.dataset waveformData\$1b;
#X obj 1197 698 array set x\$1b;
#X obj 1164 797 array define x\$1b 1;
#X obj 1315 823 array define waveform\$1b 4096;
#X obj 1315 697 t s b;
#X obj 1315 747 pack s f;
#X obj 1342 718 f \$1;
#X obj 802 332 r scan\$1b;
#X obj 417 342 t b b;
#X obj 598 502 realtime;
#X obj 1372 525 realtime;
#X msg 598 523 seed \$1;
#X msg 1372 546 seed \$1;
#X text 30 264 1 arg \, voice number \, arg 2 loadbang delays;
#X obj 417 314 delay \$2;
#X obj 1172 410 t b b;
#X obj 1172 387 delay;
#X obj 1199 340 f \$2;
#X obj 1172 308 t b b;
#X obj 1199 361 + 5;
#X obj 137 907 fluid.mlpregressor pulsar-network\$1a -hiddenlayers 3 -activation 3 -outputactivation 3 -batchsize 10 -maxiter 1000 -learnrate 0.01 -validation 0 -momentum 0.9, f 19;
#X obj 85 739 fluid.knnregressor, f 19;
#X obj 840 745 fluid.knnregressor, f 19;
#X obj 417 363 t b b b b b, f 42;
#X obj 666 458 text size waves;
#X obj 560 607 random;
#X obj 1172 435 t b b b b b, f 46;
#X obj 1424 489 text size waves;
#X obj 1315 613 random;
#X msg 1315 771 read \$1 waveform\$2b;
#X msg 560 782 read \$1 waveform\$2a;
#X obj 546 334 soundfiler;
#X obj 546 219 text get waves;
#X msg 546 198 0;
#X obj 546 240 t s b;
#X obj 591 271 f \$1;
#X obj 546 292 pack s f;
#X msg 546 313 read -resize \$1 waveform\$2a;
#X obj 729 315 soundfiler;
#X obj 729 200 text get waves;
#X msg 729 179 0;
#X obj 729 221 t s b;
#X obj 774 252 f \$1;
#X obj 729 273 pack s f;
#X msg 729 294 read -resize \$1 waveform\$2b;
#X obj 417 30 delay 50;
#X obj 47 368 +;
#X obj 47 389 clip -1 1;
#X obj 144 297 r scanAMod\$1Out;
#X obj 144 318 t b f;
#X obj 802 391 +;
#X obj 802 412 clip -1 1;
#X obj 899 341 t b f;
#X obj 899 320 r scanBMod\$1Out;
#X obj 47 431 spigot;
#X obj 802 455 spigot;
#X obj 417 67 t b b b b b b, f 55;
#X msg 744 89 0;
#X msg 678 91 0;
#X obj 295 930 t b;
#X msg 295 951 1;
#X obj 1050 945 t b;
#X msg 1050 966 1;
#X text 846 456 Close then open incoming data when new;
#X text 846 469 network is requested;
#X connect 0 0 58 0;
#X connect 2 0 5 0;
#X connect 3 0 5 1;
#X connect 4 0 63 0;
#X connect 5 0 3 0;
#X connect 5 0 4 0;
#X connect 6 0 105 0;
#X connect 7 0 70 0;
#X connect 8 0 9 0;
#X connect 9 0 55 0;
#X connect 9 1 54 0;
#X connect 10 0 15 0;
#X connect 11 0 12 1;
#X connect 12 0 11 0;
#X connect 12 0 18 0;
#X connect 13 0 14 0;
#X connect 14 0 7 0;
#X connect 15 0 12 0;
#X connect 16 0 2 0;
#X connect 17 0 0 0;
#X connect 18 0 16 0;
#X connect 18 1 23 0;
#X connect 18 2 109 0;
#X connect 18 3 22 0;
#X connect 20 0 19 0;
#X connect 21 0 12 1;
#X connect 22 0 10 0;
#X connect 22 0 25 0;
#X connect 23 0 13 0;
#X connect 24 0 68 0;
#X connect 24 0 69 0;
#X connect 25 0 57 0;
#X connect 26 0 129 0;
#X connect 27 0 88 0;
#X connect 29 0 32 0;
#X connect 30 0 32 1;
#X connect 31 0 78 0;
#X connect 32 0 30 0;
#X connect 32 0 31 0;
#X connect 33 0 106 0;
#X connect 34 0 85 0;
#X connect 35 0 36 0;
#X connect 36 0 73 0;
#X connect 36 1 72 0;
#X connect 37 0 42 0;
#X connect 38 0 39 1;
#X connect 39 0 38 0;
#X connect 39 0 45 0;
#X connect 40 0 41 0;
#X connect 41 0 34 0;
#X connect 42 0 39 0;
#X connect 43 0 29 0;
#X connect 44 0 27 0;
#X connect 45 0 43 0;
#X connect 45 1 50 0;
#X connect 45 2 112 0;
#X connect 45 3 49 0;
#X connect 47 0 46 0;
#X connect 48 0 39 1;
#X connect 49 0 37 0;
#X connect 49 0 52 0;
#X connect 50 0 40 0;
#X connect 51 0 82 0;
#X connect 51 0 84 0;
#X connect 52 0 76 0;
#X connect 53 0 130 0;
#X connect 55 0 56 0;
#X connect 56 0 105 0;
#X connect 57 0 75 0;
#X connect 58 0 59 0;
#X connect 58 1 60 0;
#X connect 59 0 114 0;
#X connect 60 0 59 1;
#X connect 63 0 64 0;
#X connect 63 1 65 0;
#X connect 64 0 66 0;
#X connect 64 0 67 0;
#X connect 65 0 64 1;
#X connect 66 0 68 0;
#X connect 67 0 69 0;
#X connect 68 0 143 0;
#X connect 71 0 140 0;
#X connect 73 0 74 0;
#X connect 74 0 106 0;
#X connect 75 0 105 0;
#X connect 76 0 77 0;
#X connect 77 0 106 0;
#X connect 78 0 79 0;
#X connect 78 1 80 0;
#X connect 79 0 81 0;
#X connect 79 0 83 0;
#X connect 80 0 79 1;
#X connect 81 0 82 0;
#X connect 82 0 145 0;
#X connect 83 0 84 0;
#X connect 88 0 89 0;
#X connect 88 1 90 0;
#X connect 89 0 113 0;
#X connect 90 0 89 1;
#X connect 91 0 134 0;
#X connect 92 0 107 0;
#X connect 92 1 93 1;
#X connect 93 0 95 0;
#X connect 94 0 96 0;
#X connect 95 0 109 0;
#X connect 96 0 112 0;
#X connect 98 0 92 0;
#X connect 99 0 110 0;
#X connect 99 1 94 1;
#X connect 100 0 99 0;
#X connect 101 0 103 0;
#X connect 102 0 100 0;
#X connect 102 1 101 0;
#X connect 103 0 100 1;
#X connect 105 0 20 0;
#X connect 106 0 47 0;
#X connect 107 0 10 0;
#X connect 107 1 21 0;
#X connect 107 2 6 0;
#X connect 107 3 24 0;
#X connect 107 4 108 0;
#X connect 108 0 109 1;
#X connect 109 0 17 0;
#X connect 110 0 37 0;
#X connect 110 1 48 0;
#X connect 110 2 33 0;
#X connect 110 3 51 0;
#X connect 110 4 111 0;
#X connect 111 0 112 1;
#X connect 112 0 44 0;
#X connect 113 0 28 0;
#X connect 114 0 1 0;
#X connect 116 0 118 0;
#X connect 117 0 116 0;
#X connect 118 0 120 0;
#X connect 118 1 119 0;
#X connect 119 0 120 1;
#X connect 120 0 121 0;
#X connect 121 0 115 0;
#X connect 123 0 125 0;
#X connect 124 0 123 0;
#X connect 125 0 127 0;
#X connect 125 1 126 0;
#X connect 126 0 127 1;
#X connect 127 0 128 0;
#X connect 128 0 122 0;
#X connect 129 0 140 0;
#X connect 130 0 131 0;
#X connect 131 0 138 0;
#X connect 132 0 133 0;
#X connect 133 0 130 0;
#X connect 133 1 130 1;
#X connect 134 0 135 0;
#X connect 135 0 139 0;
#X connect 136 0 134 0;
#X connect 136 1 134 1;
#X connect 137 0 136 0;
#X connect 138 0 8 0;
#X connect 139 0 35 0;
#X connect 140 0 98 0;
#X connect 140 1 102 0;
#X connect 140 2 117 0;
#X connect 140 3 124 0;
#X connect 140 4 142 0;
#X connect 140 5 141 0;
#X connect 141 0 139 1;
#X connect 142 0 138 1;
#X connect 143 0 144 0;
#X connect 144 0 138 1;
#X connect 145 0 146 0;
#X connect 146 0 139 1;
