#N canvas 399 327 1493 1042 10;
#X msg 1173 53 vis 1;
#X obj 26 87 until;
#X msg 73 66 0;
#X obj 26 146 f 0;
#X obj 58 146 + 1;
#X obj 26 24 r pulsaret\$1train;
#X msg 96 234 symbol point-\$1;
#X obj 96 255 t s s, f 16;
#X msg 96 421 setpoint \$1 \$2;
#X obj 262 400 pack s f;
#X obj 96 400 pack s s;
#X obj 307 378 f \$0;
#X obj 262 350 t s b;
#X obj 26 950 fluid.knnregressor;
#X obj 26 482 f \$0;
#X obj 1173 32 r newNet\$1;
#X obj 1173 74 s pd-network\$1win;
#X obj 126 601 r scan\$1a;
#X obj 126 859 f \$0;
#X obj 126 817 t b f, f 16;
#X obj 126 838 t b b, f 7;
#X obj 171 859 f \$1;
#X obj 126 880 pack f f;
#X msg 888 397 4;
#X obj 888 418 until;
#X obj 888 461 f 0;
#X obj 919 461 + 1;
#X msg 934 397 0;
#X obj 921 504 text size waves;
#X obj 888 525 random;
#X obj 888 376 t b b b, f 16;
#X obj 888 642 s, f 13;
#X obj 963 548 t f b;
#X obj 963 600 pack f f;
#X obj 888 482 t b f;
#X obj 963 527 + 1;
#X obj 1008 578 f \$1;
#X text 886 335 randomise pulsaret network tables;
#X msg 1164 397 4;
#X obj 1164 418 until;
#X obj 1164 461 f 0;
#X obj 1195 461 + 1;
#X msg 1210 397 0;
#X obj 1197 504 text size waves;
#X obj 1164 526 random;
#X obj 1164 376 t b b b, f 16;
#X obj 1164 642 s, f 13;
#X obj 1239 548 t f b;
#X obj 1239 600 pack f f;
#X obj 1164 482 t b f;
#X obj 1239 527 + 1;
#X text 1162 335 randomise pulsaret network tables;
#X obj 1164 355 r envelope\$1Radomise;
#X obj 167 209 array set \$0xBuf1;
#X obj 283 209 array define \$0xBuf1 1;
#X obj 96 442 fluid.dataset \$0waveData1;
#X obj 262 442 fluid.dataset \$0xData1;
#X obj 219 838 array set \$0slider1;
#X obj 219 859 array define \$0slider1 1;
#X msg 126 916 predictpoint \$1slider1 pulsaret\$2;
#X msg 26 503 fit \$1xData1 \$1waveData1;
#X msg 141 379 symbol view\$1a_\$2;
#X obj 96 276 t s b;
#X obj 141 358 pack f f;
#X obj 141 337 f \$1;
#X obj 186 337 + 1;
#X obj 126 753 + 1;
#X obj 126 774 * 0.5;
#X obj 442 87 until;
#X msg 489 66 0;
#X obj 442 146 f 0;
#X obj 474 146 + 1;
#X msg 512 234 symbol point-\$1;
#X obj 512 255 t s s, f 16;
#X msg 512 421 setpoint \$1 \$2;
#X obj 678 400 pack s f;
#X obj 512 400 pack s s;
#X obj 723 378 f \$0;
#X obj 678 350 t s b;
#X obj 442 958 fluid.knnregressor;
#X obj 442 482 f \$0;
#X obj 542 852 f \$0;
#X obj 542 810 t b f, f 16;
#X obj 542 831 t b b, f 7;
#X obj 587 852 f \$1;
#X obj 542 873 pack f f;
#X obj 512 276 t s b;
#X obj 557 358 pack f f;
#X obj 557 337 f \$1;
#X obj 602 337 + 1;
#X obj 542 746 + 1;
#X obj 542 767 * 0.5;
#X obj 583 209 array set \$0xBuf2;
#X obj 699 209 array define \$0xBuf2 1;
#X msg 557 379 symbol view\$1b_\$2;
#X obj 512 442 fluid.dataset \$0waveData2;
#X obj 678 442 fluid.dataset \$0xData2;
#X msg 678 421 setpoint \$1 \$2xBuf2;
#X msg 262 421 setpoint \$1 \$2xBuf1;
#X obj 542 579 r scan\$1b;
#X obj 635 831 array set \$0slider2;
#X obj 635 852 array define \$0slider2 1;
#X msg 542 909 predictpoint \$1slider2 envelope\$2;
#X obj 933 123 s waveformA\$1Random1In;
#X obj 949 145 s waveformA\$1Random2In;
#X obj 974 167 s waveformA\$1Random3In;
#X obj 990 189 s waveformA\$1Random4In;
#X obj 1087 123 s waveformB\$1Random1In;
#X obj 1103 145 s waveformB\$1Random2In;
#X obj 1144 189 s waveformB\$1Random4In;
#X obj 1128 167 s waveformB\$1Random3In;
#N canvas 749 534 752 373 loadViews 0;
#X obj 22 152 soundfiler;
#X obj 22 40 text get waves;
#X obj 22 61 t s b;
#X obj 22 110 pack s f;
#X msg 22 131 read -resize \$1 view\$2a_1;
#X obj 67 88 f \$1;
#X obj 22 19 r waveformA\$1Random1;
#X obj 197 152 soundfiler;
#X obj 197 40 text get waves;
#X obj 197 61 t s b;
#X obj 197 110 pack s f;
#X obj 242 88 f \$1;
#X obj 374 152 soundfiler;
#X obj 374 40 text get waves;
#X obj 374 61 t s b;
#X obj 374 110 pack s f;
#X obj 419 88 f \$1;
#X obj 549 152 soundfiler;
#X obj 549 40 text get waves;
#X obj 549 61 t s b;
#X obj 549 110 pack s f;
#X obj 594 88 f \$1;
#X obj 197 19 r waveformA\$1Random2;
#X msg 197 131 read -resize \$1 view\$2a_2;
#X obj 374 19 r waveformA\$1Random3;
#X msg 374 131 read -resize \$1 view\$2a_3;
#X obj 549 19 r waveformA\$1Random4;
#X msg 549 131 read -resize \$1 view\$2a_4;
#X obj 22 312 soundfiler;
#X obj 22 200 text get waves;
#X obj 22 221 t s b;
#X obj 22 270 pack s f;
#X obj 67 248 f \$1;
#X obj 197 312 soundfiler;
#X obj 197 200 text get waves;
#X obj 197 221 t s b;
#X obj 197 270 pack s f;
#X obj 242 248 f \$1;
#X obj 374 312 soundfiler;
#X obj 374 200 text get waves;
#X obj 374 221 t s b;
#X obj 374 270 pack s f;
#X obj 419 248 f \$1;
#X obj 549 312 soundfiler;
#X obj 549 200 text get waves;
#X obj 549 221 t s b;
#X obj 549 270 pack s f;
#X obj 594 248 f \$1;
#X obj 22 179 r waveformB\$1Random1;
#X msg 22 291 read -resize \$1 view\$2b_1;
#X obj 197 179 r waveformB\$1Random2;
#X msg 197 291 read -resize \$1 view\$2b_2;
#X obj 374 179 r waveformB\$1Random3;
#X msg 374 291 read -resize \$1 view\$2b_3;
#X obj 549 179 r waveformB\$1Random4;
#X msg 549 291 read -resize \$1 view\$2b_4;
#X connect 1 0 2 0;
#X connect 2 0 3 0;
#X connect 2 1 5 0;
#X connect 3 0 4 0;
#X connect 4 0 0 0;
#X connect 5 0 3 1;
#X connect 6 0 1 0;
#X connect 8 0 9 0;
#X connect 9 0 10 0;
#X connect 9 1 11 0;
#X connect 10 0 23 0;
#X connect 11 0 10 1;
#X connect 13 0 14 0;
#X connect 14 0 15 0;
#X connect 14 1 16 0;
#X connect 15 0 25 0;
#X connect 16 0 15 1;
#X connect 18 0 19 0;
#X connect 19 0 20 0;
#X connect 19 1 21 0;
#X connect 20 0 27 0;
#X connect 21 0 20 1;
#X connect 22 0 8 0;
#X connect 23 0 7 0;
#X connect 24 0 13 0;
#X connect 25 0 12 0;
#X connect 26 0 18 0;
#X connect 27 0 17 0;
#X connect 29 0 30 0;
#X connect 30 0 31 0;
#X connect 30 1 32 0;
#X connect 31 0 49 0;
#X connect 32 0 31 1;
#X connect 34 0 35 0;
#X connect 35 0 36 0;
#X connect 35 1 37 0;
#X connect 36 0 51 0;
#X connect 37 0 36 1;
#X connect 39 0 40 0;
#X connect 40 0 41 0;
#X connect 40 1 42 0;
#X connect 41 0 53 0;
#X connect 42 0 41 1;
#X connect 44 0 45 0;
#X connect 45 0 46 0;
#X connect 45 1 47 0;
#X connect 46 0 55 0;
#X connect 47 0 46 1;
#X connect 48 0 29 0;
#X connect 49 0 28 0;
#X connect 50 0 34 0;
#X connect 51 0 33 0;
#X connect 52 0 39 0;
#X connect 53 0 38 0;
#X connect 54 0 44 0;
#X connect 55 0 43 0;
#X restore 914 252 pd loadViews;
#X obj 888 355 r pulsaret\$1Radomise;
#X msg 963 621 symbol waveformA\$2Random\$1Cast;
#X msg 1239 621 symbol waveformB\$2Random\$1Cast;
#X obj 26 167 t f f f f, f 24;
#X obj 442 167 t f f f f, f 24;
#X msg 26 66 4;
#X msg 442 66 4;
#X msg 120 66 clear;
#X msg 536 66 clear;
#X obj 583 188 / 4;
#X obj 442 461 sel 3;
#X obj 167 188 / 4;
#X obj 26 461 sel 3;
#X obj 1284 578 f \$1;
#X obj 933 64 r rangeset;
#X obj 442 24 r envelope\$1train;
#X msg 442 503 fit \$1xData2 \$1waveData2;
#X obj 26 45 t b b b b, f 24;
#X obj 195 481 t b b;
#X obj 233 503 delay 100;
#X msg 233 525 1;
#X msg 195 503 0;
#X obj 126 730 spigot;
#X text 231 719 close off scan whilst training;
#X text 231 732 to avoid weird glitches;
#X obj 635 471 t b b;
#X obj 673 493 delay 100;
#X msg 673 514 1;
#X msg 635 493 0;
#X obj 542 704 spigot;
#X obj 442 45 t b b b b, f 24;
#X obj 709 553 loadbang;
#X obj 709 574 t b b, f 11;
#X obj 772 595 delay 1000;
#X msg 772 616 1;
#X msg 709 595 0;
#X text 625 717 avoid "no data fitted" error during init;
#X obj 261 561 loadbang;
#X obj 261 582 t b b, f 11;
#X obj 324 603 delay 1000;
#X msg 324 624 1;
#X msg 261 603 0;
#X obj 141 625 r scanAMod\$1Out;
#X obj 126 688 +;
#X obj 141 646 t b f;
#X obj 566 636 t b f;
#X obj 542 683 +;
#X obj 566 615 r scanBMod\$1Out;
#X floatatom 206 748 5 0 0 0 - - - 0;
#X connect 0 0 16 0;
#X connect 1 0 3 0;
#X connect 2 0 3 1;
#X connect 3 0 4 0;
#X connect 3 0 115 0;
#X connect 4 0 3 1;
#X connect 5 0 129 0;
#X connect 6 0 7 0;
#X connect 7 0 62 0;
#X connect 7 1 12 0;
#X connect 8 0 55 0;
#X connect 9 0 98 0;
#X connect 10 0 8 0;
#X connect 11 0 9 1;
#X connect 12 0 9 0;
#X connect 12 1 11 0;
#X connect 14 0 60 0;
#X connect 15 0 0 0;
#X connect 17 0 155 0;
#X connect 18 0 22 0;
#X connect 19 0 20 0;
#X connect 19 1 57 0;
#X connect 20 0 18 0;
#X connect 20 1 21 0;
#X connect 21 0 22 1;
#X connect 22 0 59 0;
#X connect 23 0 24 0;
#X connect 24 0 25 0;
#X connect 25 0 26 0;
#X connect 25 0 34 0;
#X connect 26 0 25 1;
#X connect 27 0 25 1;
#X connect 28 0 29 1;
#X connect 29 0 31 0;
#X connect 30 0 23 0;
#X connect 30 1 27 0;
#X connect 30 2 28 0;
#X connect 32 0 33 0;
#X connect 32 1 36 0;
#X connect 33 0 113 0;
#X connect 34 0 29 0;
#X connect 34 1 35 0;
#X connect 35 0 32 0;
#X connect 36 0 33 1;
#X connect 38 0 39 0;
#X connect 39 0 40 0;
#X connect 40 0 41 0;
#X connect 40 0 49 0;
#X connect 41 0 40 1;
#X connect 42 0 40 1;
#X connect 43 0 44 1;
#X connect 44 0 46 0;
#X connect 45 0 38 0;
#X connect 45 1 42 0;
#X connect 45 2 43 0;
#X connect 47 0 48 0;
#X connect 47 1 125 0;
#X connect 48 0 114 0;
#X connect 49 0 44 0;
#X connect 49 1 50 0;
#X connect 50 0 47 0;
#X connect 52 0 45 0;
#X connect 59 0 13 0;
#X connect 60 0 13 0;
#X connect 61 0 10 1;
#X connect 62 0 10 0;
#X connect 62 1 64 0;
#X connect 63 0 61 0;
#X connect 64 0 63 0;
#X connect 65 0 63 1;
#X connect 66 0 67 0;
#X connect 67 0 19 0;
#X connect 68 0 70 0;
#X connect 69 0 70 1;
#X connect 70 0 71 0;
#X connect 70 0 116 0;
#X connect 71 0 70 1;
#X connect 72 0 73 0;
#X connect 73 0 86 0;
#X connect 73 1 78 0;
#X connect 74 0 95 0;
#X connect 75 0 97 0;
#X connect 76 0 74 0;
#X connect 77 0 75 1;
#X connect 78 0 75 0;
#X connect 78 1 77 0;
#X connect 80 0 128 0;
#X connect 81 0 85 0;
#X connect 82 0 83 0;
#X connect 82 1 100 0;
#X connect 83 0 81 0;
#X connect 83 1 84 0;
#X connect 84 0 85 1;
#X connect 85 0 102 0;
#X connect 86 0 76 0;
#X connect 86 1 88 0;
#X connect 87 0 94 0;
#X connect 88 0 87 0;
#X connect 89 0 87 1;
#X connect 90 0 91 0;
#X connect 91 0 82 0;
#X connect 94 0 76 1;
#X connect 97 0 96 0;
#X connect 98 0 56 0;
#X connect 99 0 158 0;
#X connect 102 0 79 0;
#X connect 112 0 30 0;
#X connect 113 0 31 1;
#X connect 114 0 46 1;
#X connect 115 0 124 0;
#X connect 115 1 6 0;
#X connect 115 2 65 0;
#X connect 115 3 123 0;
#X connect 116 0 122 0;
#X connect 116 1 72 0;
#X connect 116 2 89 0;
#X connect 116 3 121 0;
#X connect 117 0 1 0;
#X connect 118 0 68 0;
#X connect 119 0 56 0;
#X connect 119 0 55 0;
#X connect 119 0 13 0;
#X connect 120 0 96 0;
#X connect 120 0 95 0;
#X connect 120 0 79 0;
#X connect 121 0 92 0;
#X connect 122 0 80 0;
#X connect 123 0 53 0;
#X connect 124 0 14 0;
#X connect 125 0 48 1;
#X connect 126 0 103 0;
#X connect 126 0 104 0;
#X connect 126 0 105 0;
#X connect 126 0 106 0;
#X connect 126 0 107 0;
#X connect 126 0 108 0;
#X connect 126 0 109 0;
#X connect 126 0 110 0;
#X connect 127 0 142 0;
#X connect 128 0 79 0;
#X connect 129 0 117 0;
#X connect 129 1 2 0;
#X connect 129 2 119 0;
#X connect 129 3 130 0;
#X connect 130 0 133 0;
#X connect 130 1 131 0;
#X connect 131 0 132 0;
#X connect 132 0 134 1;
#X connect 132 0 160 0;
#X connect 133 0 134 1;
#X connect 133 0 160 0;
#X connect 134 0 66 0;
#X connect 137 0 140 0;
#X connect 137 1 138 0;
#X connect 138 0 139 0;
#X connect 139 0 141 1;
#X connect 140 0 141 1;
#X connect 141 0 90 0;
#X connect 142 0 118 0;
#X connect 142 1 69 0;
#X connect 142 2 120 0;
#X connect 142 3 137 0;
#X connect 143 0 144 0;
#X connect 144 0 147 0;
#X connect 144 1 145 0;
#X connect 145 0 146 0;
#X connect 146 0 141 1;
#X connect 147 0 141 1;
#X connect 149 0 150 0;
#X connect 150 0 153 0;
#X connect 150 1 151 0;
#X connect 151 0 152 0;
#X connect 152 0 134 1;
#X connect 153 0 134 1;
#X connect 154 0 156 0;
#X connect 155 0 134 0;
#X connect 156 0 155 0;
#X connect 156 1 155 1;
#X connect 157 0 158 0;
#X connect 157 1 158 1;
#X connect 158 0 141 0;
#X connect 159 0 157 0;
