#N canvas 948 53 618 836 10;
#X obj 222 342 pack f f f;
#X obj 239 283 t b f;
#X obj 280 305 t b f;
#X obj 81 196 sig~;
#X obj 81 217 lop~ 60;
#X obj 81 248 +~;
#X obj 37 551 *~;
#X obj 81 489 sig~;
#X obj 368 163 sig~;
#X obj 368 204 +~;
#X obj 368 184 lop~ 60;
#X obj 282 466 text get waves;
#X obj 419 465 text get waves;
#X text 279 424 chooses wav from .txt list of audio file names;
#X text 302 395 pulsar abstraction \, arg = pulsar number;
#X text 174 443 wavefolder;
#X obj 37 736 lop~ 22050;
#X obj 37 757 lop~ 22050;
#X obj 37 778 lop~ 22050;
#X obj 185 736 lop~ 22050;
#X obj 185 757 lop~ 22050;
#X obj 185 778 lop~ 22050;
#X obj 81 296 clip~ 0.1 32;
#X obj 368 225 clip~ 0 1;
#X obj 302 228 *~;
#X obj 81 269 +~;
#X obj 323 327 int;
#X obj 497 305 inlet~;
#X obj 37 715 fexpr~ tanh($x1);
#X obj 185 715 fexpr~ tanh($x1);
#X obj 37 25 r~ ramp\$1;
#X obj 81 175 r formant\$1;
#X obj 115 196 r~ formMod\$1Out;
#X obj 125 318 r puls\$1;
#X obj 153 344 r env\$1;
#X obj 222 240 r ratio\$1a;
#X obj 239 262 r ratio\$1b;
#X obj 280 284 r ratio\$1c;
#X obj 323 306 r prob\$1a;
#X obj 368 142 r cross\$1;
#X obj 440 142 r~ crossMod\$1Out;
#X obj 448 212 r ratio\$1bLink;
#X obj 471 236 r ratio\$1cLink;
#X obj 552 314 r src\$1;
#X obj 405 306 r maskMode\$1;
#X obj 80 432 s~ gen\$1;
#X obj 302 207 r~;
#X obj 226 21 loadbang;
#X obj 226 63 f \$1;
#X obj 226 84 + 2;
#X obj 226 105 % 3;
#X obj 226 126 + 1;
#X text 333 31 arg 2: total num of generators;
#X obj 226 42 t b b, f 9;
#X obj 277 63 f \$2;
#X text 333 18 arg 1: generator number from 1;
#X msg 226 147 set gen\$1;
#X obj 81 468 r amp\$1;
#X obj 142 468 r~ ampMod\$1Out;
#X obj 282 444 r puls\$1Ind;
#X obj 419 443 r env\$1Ind;
#X obj 419 527 s env\$1;
#X obj 282 528 s puls\$1;
#X obj 37 799 outlet~;
#X obj 185 799 outlet~;
#X obj 37 369 pulsar~ \$1, f 77;
#X obj 81 510 *~;
#N canvas 92 136 658 459 panner 0;
#X obj 107 115 sig~;
#X obj 107 234 *~ 0.25;
#X obj 107 255 cos~;
#X obj 215 234 expr~ (1 - $v1) * 0.25;
#X obj 215 255 cos~;
#X obj 52 288 *~;
#X obj 200 288 *~;
#X obj 107 136 +~;
#X obj 107 179 +~ 1;
#X obj 107 200 *~ 0.5;
#X obj 107 157 clip~ -1 1;
#X obj 169 94 r~ panMod\$1Out;
#X obj 53 29 inlet~;
#X obj 52 309 outlet~;
#X obj 200 309 outlet~;
#X obj 107 30 inlet;
#X connect 0 0 7 0;
#X connect 1 0 2 0;
#X connect 2 0 5 1;
#X connect 3 0 4 0;
#X connect 4 0 6 1;
#X connect 5 0 13 0;
#X connect 6 0 14 0;
#X connect 7 0 10 0;
#X connect 8 0 9 0;
#X connect 9 0 1 0;
#X connect 9 0 3 0;
#X connect 10 0 8 0;
#X connect 11 0 7 1;
#X connect 12 0 5 0;
#X connect 12 0 6 0;
#X connect 15 0 0 0;
#X restore 37 664 pd panner;
#X obj 88 599 r pan\$1;
#X floatatom 171 637 5 0 0 0 - - - 0;
#X listbox 282 487 20 0 0 0 - - - 0;
#X listbox 419 486 20 0 0 0 - - - 0;
#X connect 0 0 65 4;
#X connect 1 0 0 0;
#X connect 1 1 0 1;
#X connect 2 0 0 0;
#X connect 2 1 0 2;
#X connect 3 0 4 0;
#X connect 4 0 5 0;
#X connect 5 0 25 0;
#X connect 6 0 67 0;
#X connect 7 0 66 0;
#X connect 8 0 10 0;
#X connect 9 0 23 0;
#X connect 10 0 9 0;
#X connect 11 0 70 0;
#X connect 12 0 71 0;
#X connect 16 0 17 0;
#X connect 17 0 18 0;
#X connect 18 0 63 0;
#X connect 19 0 20 0;
#X connect 20 0 21 0;
#X connect 21 0 64 0;
#X connect 22 0 65 1;
#X connect 23 0 24 1;
#X connect 25 0 22 0;
#X connect 26 0 65 5;
#X connect 27 0 65 7;
#X connect 28 0 16 0;
#X connect 29 0 19 0;
#X connect 30 0 65 0;
#X connect 31 0 3 0;
#X connect 32 0 5 1;
#X connect 33 0 65 2;
#X connect 34 0 65 3;
#X connect 35 0 0 0;
#X connect 36 0 1 0;
#X connect 37 0 2 0;
#X connect 38 0 26 0;
#X connect 39 0 8 0;
#X connect 40 0 9 1;
#X connect 41 0 1 0;
#X connect 42 0 2 0;
#X connect 43 0 65 8;
#X connect 44 0 65 6;
#X connect 46 0 24 0;
#X connect 47 0 53 0;
#X connect 48 0 49 0;
#X connect 49 0 50 0;
#X connect 50 0 51 0;
#X connect 51 0 56 0;
#X connect 53 0 48 0;
#X connect 53 1 54 0;
#X connect 54 0 50 1;
#X connect 56 0 46 0;
#X connect 57 0 7 0;
#X connect 58 0 66 1;
#X connect 59 0 11 0;
#X connect 60 0 12 0;
#X connect 65 0 6 0;
#X connect 65 0 45 0;
#X connect 66 0 6 1;
#X connect 67 0 28 0;
#X connect 67 1 29 0;
#X connect 68 0 67 1;
#X connect 68 0 69 0;
#X connect 70 0 62 0;
#X connect 71 0 61 0;
