#N canvas 917 44 716 1034 10;
#X obj 229 244 pack f f f;
#X obj 246 185 t b f;
#X obj 287 207 t b f;
#X obj 88 98 sig~;
#X obj 88 119 lop~ 60;
#X obj 88 150 +~;
#X obj 37 551 *~;
#X obj 81 489 sig~;
#X text 279 424 chooses wav from .txt list of audio file names;
#X text 302 395 pulsar abstraction \, arg = pulsar number;
#X text 174 443 wavefolder;
#X obj 88 198 clip~ 0.1 32;
#X obj 88 171 +~;
#X obj 330 229 int;
#X obj 504 207 inlet~;
#X obj 37 920 fexpr~ tanh($x1);
#X obj 185 920 fexpr~ tanh($x1);
#X obj 37 25 r~ ramp\$1;
#X obj 88 77 r formant\$1;
#X obj 122 98 r~ formMod\$1Out;
#X obj 132 220 r puls\$1;
#X obj 160 246 r env\$1;
#X obj 229 142 r ratio\$1a;
#X obj 246 164 r ratio\$1b;
#X obj 287 186 r ratio\$1c;
#X obj 330 208 r prob\$1a;
#X obj 455 114 r ratio\$1bLink;
#X obj 478 138 r ratio\$1cLink;
#X obj 559 192 r src\$1;
#X obj 412 208 r maskMode\$1;
#X obj 80 432 s~ gen\$1;
#X text 333 31 arg 2: total num of generators;
#X text 333 18 arg 1: generator number from 1;
#X obj 81 468 r amp\$1;
#X obj 142 468 r~ ampMod\$1Out;
#X obj 282 444 r puls\$1Ind;
#X obj 381 443 r env\$1Ind;
#X obj 381 485 s env\$1;
#X obj 282 486 s puls\$1;
#X obj 37 943 outlet~;
#X obj 185 943 outlet~;
#X obj 37 369 pulsar~ \$1, f 77;
#X obj 81 510 *~;
#N canvas 92 136 658 459 panner 0;
#X obj 107 115 sig~;
#X obj 107 234 *~ 0.25;
#X obj 107 255 cos~;
#X obj 215 234 expr~ (1 - $v1) * 0.25;
#X obj 215 255 cos~;
#X obj 52 288 *~;
#X obj 200 288 *~;
#X obj 107 136 +~;
#X obj 107 179 +~ 1;
#X obj 107 200 *~ 0.5;
#X obj 107 157 clip~ -1 1;
#X obj 169 94 r~ panMod\$1Out;
#X obj 53 29 inlet~;
#X obj 52 309 outlet~;
#X obj 200 309 outlet~;
#X obj 107 30 inlet;
#X connect 0 0 7 0;
#X connect 1 0 2 0;
#X connect 2 0 5 1;
#X connect 3 0 4 0;
#X connect 4 0 6 1;
#X connect 5 0 13 0;
#X connect 6 0 14 0;
#X connect 7 0 10 0;
#X connect 8 0 9 0;
#X connect 9 0 1 0;
#X connect 9 0 3 0;
#X connect 10 0 8 0;
#X connect 11 0 7 1;
#X connect 12 0 5 0;
#X connect 12 0 6 0;
#X connect 15 0 0 0;
#X restore 37 869 pd panner;
#X obj 88 669 r pan\$1;
#X obj 391 701 delwrite~ \$0feedback 128;
#X obj 391 650 *~;
#X obj 391 679 fexpr~ tanh($x1);
#X obj 524 234 r feedbackTime\$1;
#X obj 415 511 r feedbackAmount\$1;
#X obj 305 946 spigot;
#X msg 305 972 set \$1;
#X obj 497 947 spigot;
#X msg 497 973 set \$1;
#X text 385 884 ratio b + c link;
#X obj 305 904 r ratio\$1b;
#X obj 338 925 r ratio\$1Link;
#X obj 394 994 s ratio\$1cLink;
#X obj 497 905 r ratio\$1c;
#X obj 530 926 r ratio\$1Link;
#X obj 591 994 s ratio\$1bLink;
#X obj 415 605 +~;
#X obj 446 575 r~ fdbckMod\$1Out;
#X obj 524 342 delread4~ \$0feedback 20;
#X obj 524 255 sig~;
#X obj 524 276 lop~ 60;
#X obj 524 297 +~;
#X obj 591 260 r~ delMod\$1Out;
#X obj 415 532 sig~;
#X obj 415 553 lop~ 60;
#X text 388 720 feedback loop feeds pulsar output back into istelf;
#X text 388 733 still enveloped;
#X obj 524 318 clip~ 6 120;
#X obj 282 465 text get waves;
#X obj 381 464 text get waves;
#X obj 298 994 s ratio\$1cCast;
#X obj 497 994 s ratio\$1bCast;
#X floatatom 259 509 5 0 0 0 - - - 0;
#X connect 0 0 41 4;
#X connect 1 0 0 0;
#X connect 1 1 0 1;
#X connect 2 0 0 0;
#X connect 2 1 0 2;
#X connect 3 0 4 0;
#X connect 4 0 5 0;
#X connect 5 0 12 0;
#X connect 6 0 43 0;
#X connect 7 0 42 0;
#X connect 11 0 41 1;
#X connect 12 0 11 0;
#X connect 13 0 41 5;
#X connect 14 0 41 7;
#X connect 15 0 39 0;
#X connect 16 0 40 0;
#X connect 17 0 41 0;
#X connect 18 0 3 0;
#X connect 19 0 5 1;
#X connect 20 0 41 2;
#X connect 21 0 41 3;
#X connect 22 0 0 0;
#X connect 23 0 1 0;
#X connect 24 0 2 0;
#X connect 25 0 13 0;
#X connect 26 0 1 0;
#X connect 27 0 2 0;
#X connect 28 0 41 8;
#X connect 29 0 41 6;
#X connect 33 0 7 0;
#X connect 34 0 42 1;
#X connect 35 0 73 0;
#X connect 35 0 77 0;
#X connect 36 0 74 0;
#X connect 41 0 6 0;
#X connect 41 0 30 0;
#X connect 41 0 46 0;
#X connect 42 0 6 1;
#X connect 43 0 15 0;
#X connect 43 1 16 0;
#X connect 44 0 43 1;
#X connect 46 0 47 0;
#X connect 47 0 45 0;
#X connect 48 0 64 0;
#X connect 49 0 68 0;
#X connect 50 0 51 0;
#X connect 50 0 57 0;
#X connect 51 0 75 0;
#X connect 52 0 53 0;
#X connect 52 0 60 0;
#X connect 53 0 76 0;
#X connect 55 0 50 0;
#X connect 56 0 50 1;
#X connect 58 0 52 0;
#X connect 59 0 52 1;
#X connect 61 0 46 1;
#X connect 62 0 61 1;
#X connect 63 0 41 9;
#X connect 64 0 65 0;
#X connect 65 0 66 0;
#X connect 66 0 72 0;
#X connect 67 0 66 1;
#X connect 68 0 69 0;
#X connect 69 0 61 0;
#X connect 72 0 63 0;
#X connect 73 0 38 0;
#X connect 74 0 37 0;
