#N canvas 189 122 768 361 10;
#X obj 40 97 inlet;
#X text 20 17 \$1 - clone instance;
#X text 20 30 \$2 - text buffer to take route+send names from;
#X obj 115 231 text get \$2;
#X obj 157 188 loadbang;
#X msg 157 209 1;
#X obj 115 209 f \$1;
#X text 153 162 bang when training regressor to get route/send names.;
#X obj 40 273 s, f 13;
#X text 20 43 \$3 - regressor prediction array;
#X text 360 13 read from prediction buffer \, with an onset what whatever the clone index is. [s] is then set to send to a receive taken from a preset buffer - both array index and text buffer should line up;
#X obj 40 118 route predict train;
#X obj 40 160 tabread \$3;
#X obj 40 139 f \$1;
#X msg 115 252 symbol \$1In;
#X connect 0 0 11 0;
#X connect 3 0 14 0;
#X connect 4 0 5 0;
#X connect 5 0 3 2;
#X connect 6 0 3 0;
#X connect 11 0 13 0;
#X connect 11 1 6 0;
#X connect 12 0 8 0;
#X connect 13 0 12 0;
#X connect 14 0 8 1;
