#N canvas 804 119 822 916 10;
#X obj 62 18 pulsarParameters 1;
#X obj 183 18 pulsarParameters 2;
#X obj 305 18 pulsarParameters 3;
#X obj 62 130 t b f;
#X obj 62 177 f;
#X msg 62 65 \$2 \$1;
#X obj 62 86 unpack s f;
#X obj 523 20 loadbang;
#X obj 597 249 r presetNum;
#X obj 582 227 r presetSave;
#X obj 582 272 f;
#X msg 582 293 write presets/preset\$1.txt;
#X obj 523 320 text define \$0preset;
#X obj 400 140 r presetLoad;
#X obj 415 162 r presetNum;
#X obj 400 185 f;
#X msg 400 206 read presets/preset\$1.txt;
#X obj 400 290 text size \$0preset;
#X obj 400 339 until;
#X obj 400 360 f 0;
#X obj 432 360 + 1;
#X msg 461 248 0;
#X obj 62 108 text search \$0preset;
#X obj 427 403 text get \$0preset;
#X msg 427 424 \$2 \$1;
#X obj 427 445 unpack f s;
#X obj 427 488 s, f 10;
#X obj 62 199 text set \$0preset;
#X obj 128 157 loadbang;
#X msg 128 178 1;
#X msg 484 466 symbol \$1In;
#X obj 400 227 t b b a, f 21;
#X obj 523 41 t b b, f 16;
#X obj 523 83 t b b;
#X msg 550 106 0;
#X text 427 527 this can't be altered from the PdPG control pannel;
#X text 427 540 and acts as a 'blank' default \, however \, a user;
#X text 427 553 may opt to paste their own default into the;
#X text 427 566 'preset-default.txt' file;
#X text 427 514 on startup \, 'preset-default.txt' is loaded;
#X msg 582 175 read presets/preset-default.txt, f 26;
#N canvas 801 50 704 1037 morphNetwork 1;
#X obj 27 30 inlet;
#X obj 138 218 text define \$0tempPreset;
#X obj 82 325 text size \$0tempPreset;
#X msg 145 367 resize \$1;
#X obj 82 388 until;
#X obj 82 409 f 0;
#X obj 111 409 + 1;
#X obj 82 281 t b b;
#X msg 109 302 0;
#X obj 82 494 text get \$0tempPreset;
#X obj 123 451 loadbang;
#X msg 123 472 1;
#X obj 82 430 t f f;
#X obj 82 346 t f f, f 11;
#X text 145 300 copy data from text buffer (second element);
#X msg 84 112 0;
#X msg 27 112 8;
#X obj 27 133 until;
#X obj 27 155 f 0;
#X obj 56 155 + 1;
#X msg 54 564 symbol point-\$1;
#X msg 138 197 read presets/preset\$1.txt;
#X obj 54 768 fluid.dataset \$0xData;
#X obj 110 249 array set \$0xBuf;
#X obj 218 249 array define \$0xBuf 1;
#X obj 145 388 array define \$0presetBuf;
#X obj 82 515 tabwrite \$0presetBuf;
#X obj 136 718 fluid.dataset \$0presetData;
#X obj 54 675 pack s f;
#X obj 54 585 t s s b, f 28;
#X obj 219 606 f \$0;
#X obj 136 675 pack s f;
#X obj 219 627 t f f;
#X msg 54 747 setpoint \$1 \$2xBuf;
#X msg 136 696 setpoint \$1 \$2presetBuf;
#X obj 27 845 f \$0;
#X msg 27 866 fit \$1xData \$1presetData;
#X obj 27 910 fluid.knnregressor;
#X obj 495 691 array set \$0slider;
#X obj 468 739 f \$0;
#X obj 546 795 array define \$0predict;
#X msg 546 774 resize \$1;
#X msg 468 842 predictpoint \$1slider \$1predict;
#X obj 198 112 text size \$0preset;
#X obj 495 713 array define \$0slider 1;
#X obj 27 931 route predictpoint;
#X text 291 217 open each preset .txt file;
#X text 355 249 in data is slider position \, 0 - 7 \, for each preset;
#X obj 449 963 clone 1 presetSend \$0preset \$0predict;
#X obj 27 91 t b b b b, f 29;
#X obj 449 639 t b b f;
#X msg 403 893 all train bang;
#X msg 449 941 all predict bang;
#X msg 527 897 resize \$1;
#X msg 634 897 vis 3 1;
#X obj 449 542 r presetMorph;
#X obj 27 176 t f f b f f, f 19;
#X obj 198 133 t f f;
#X obj 27 824 sel 7;
#X obj 449 563 t f f;
#X obj 476 584 int;
#X obj 476 605 s presetNumIn;
#X connect 0 0 49 0;
#X connect 2 0 13 0;
#X connect 3 0 25 0;
#X connect 4 0 5 0;
#X connect 5 0 6 0;
#X connect 5 0 12 0;
#X connect 6 0 5 1;
#X connect 7 0 2 0;
#X connect 7 1 8 0;
#X connect 8 0 5 1;
#X connect 9 0 26 0;
#X connect 10 0 11 0;
#X connect 11 0 9 1;
#X connect 12 0 9 0;
#X connect 12 1 26 1;
#X connect 13 0 4 0;
#X connect 13 1 3 0;
#X connect 15 0 18 1;
#X connect 16 0 17 0;
#X connect 17 0 18 0;
#X connect 18 0 19 0;
#X connect 18 0 56 0;
#X connect 19 0 18 1;
#X connect 20 0 29 0;
#X connect 21 0 1 0;
#X connect 28 0 33 0;
#X connect 29 0 28 0;
#X connect 29 1 31 0;
#X connect 29 2 30 0;
#X connect 30 0 32 0;
#X connect 31 0 34 0;
#X connect 32 0 28 1;
#X connect 32 1 31 1;
#X connect 33 0 22 0;
#X connect 34 0 27 0;
#X connect 35 0 36 0;
#X connect 36 0 37 0;
#X connect 37 0 45 0;
#X connect 39 0 42 0;
#X connect 41 0 40 0;
#X connect 42 0 37 0;
#X connect 43 0 57 0;
#X connect 49 0 16 0;
#X connect 49 1 15 0;
#X connect 49 2 51 0;
#X connect 49 3 43 0;
#X connect 50 0 52 0;
#X connect 50 1 39 0;
#X connect 50 2 38 0;
#X connect 51 0 48 0;
#X connect 52 0 48 0;
#X connect 53 0 48 0;
#X connect 54 0 48 0;
#X connect 55 0 59 0;
#X connect 56 0 58 0;
#X connect 56 1 20 0;
#X connect 56 2 7 0;
#X connect 56 3 23 0;
#X connect 56 4 21 0;
#X connect 57 0 53 0;
#X connect 57 1 41 0;
#X connect 58 0 35 0;
#X connect 59 0 50 0;
#X connect 59 1 60 0;
#X connect 60 0 61 0;
#X restore 34 365 pd morphNetwork;
#X obj 34 344 delay 1000;
#X obj 34 245 loadbang;
#X obj 51 269 r presetSave;
#X text 102 346 1 sec delay to make sure everything saves;
#X obj 523 62 del 500;
#X obj 400 381 t f f;
#X obj 400 670 sel;
#X obj 400 311 t f f, f 11;
#X obj 562 734 s envelope3train;
#X obj 535 756 s pulsaret3train;
#X obj 494 778 s envelope2train;
#X obj 400 844 s pulsaret1train;
#X obj 415 648 - 1;
#X obj 467 800 s pulsaret2train;
#X obj 400 691 t b b b b b b, f 30;
#X obj 427 822 s envelope1train;
#X obj 526 622 bng 16 250 50 0 empty empty empty 0 -8 0 10 #fcfcfc #000000 #000000;
#X obj 668 14 bng 16 250 50 0 empty empty empty 0 -8 0 10 #fcfcfc #000000 #000000;
#X connect 0 0 5 0;
#X connect 1 0 5 0;
#X connect 2 0 5 0;
#X connect 3 0 4 0;
#X connect 3 1 27 1;
#X connect 4 0 27 0;
#X connect 5 0 6 0;
#X connect 6 0 22 0;
#X connect 6 1 4 1;
#X connect 7 0 32 0;
#X connect 8 0 10 1;
#X connect 9 0 10 0;
#X connect 10 0 11 0;
#X connect 11 0 12 0;
#X connect 13 0 15 0;
#X connect 14 0 15 1;
#X connect 15 0 16 0;
#X connect 16 0 31 0;
#X connect 17 0 49 0;
#X connect 18 0 19 0;
#X connect 19 0 20 0;
#X connect 19 0 47 0;
#X connect 20 0 19 1;
#X connect 21 0 19 1;
#X connect 22 0 3 0;
#X connect 23 0 24 0;
#X connect 24 0 25 0;
#X connect 25 0 26 0;
#X connect 25 1 30 0;
#X connect 28 0 29 0;
#X connect 29 0 27 2;
#X connect 30 0 26 1;
#X connect 31 0 17 0;
#X connect 31 1 21 0;
#X connect 31 2 12 0;
#X connect 32 0 46 0;
#X connect 32 1 40 0;
#X connect 33 0 17 0;
#X connect 33 1 34 0;
#X connect 34 0 19 1;
#X connect 40 0 12 0;
#X connect 42 0 41 0;
#X connect 43 0 42 0;
#X connect 44 0 42 0;
#X connect 46 0 33 0;
#X connect 47 0 48 0;
#X connect 47 1 23 0;
#X connect 48 0 56 0;
#X connect 49 0 18 0;
#X connect 49 1 54 0;
#X connect 54 0 48 1;
#X connect 56 0 53 0;
#X connect 56 1 57 0;
#X connect 56 2 55 0;
#X connect 56 3 52 0;
#X connect 56 4 51 0;
#X connect 56 5 50 0;
#X connect 58 0 56 0;
#X connect 59 0 32 0;
