#N canvas 328 83 1472 957 10;
#X obj 21 26 r interp\$1;
#X obj 95 26 r src\$1;
#X obj 149 26 r puls\$1Ind;
#X obj 229 26 r scan\$1a;
#X obj 298 26 r env\$1Ind;
#X obj 371 26 r scan\$1b;
#X obj 440 26 r formant\$1;
#X obj 519 26 r cross\$1;
#X obj 586 26 r pan\$1;
#X obj 641 26 r stbin\$1;
#X obj 707 26 r amp\$1;
#X obj 762 26 r fund\$1;
#X obj 823 26 r maskMode\$1;
#X obj 908 26 r prob\$1a;
#X obj 975 26 r ratio\$1a;
#X obj 1118 26 r ratio\$1c;
#X obj 1047 26 r ratio\$1b;
#X obj 1191 26 r ratio\$1Link;
#X obj 1281 26 r ramp\$1Sel;
#X obj 21 128 pack f s;
#X obj 21 47 t f b;
#X obj 66 96 symbol interp\$1, f 8;
#X obj 95 221 pack f s;
#X obj 95 140 t f b;
#X obj 140 189 symbol src\$1, f 6;
#X obj 149 128 pack f s;
#X obj 149 47 t f b;
#X obj 194 96 symbol puls\$1Ind, f 9;
#X obj 22 918 outlet;
#X obj 229 217 pack f s;
#X obj 229 136 t f b;
#X obj 274 185 symbol scan\$1a, f 7;
#X obj 298 129 pack f s;
#X obj 298 48 t f b;
#X obj 343 97 symbol env\$1Ind, f 8;
#X obj 371 262 pack f s;
#X obj 371 181 t f b;
#X obj 416 230 symbol scan\$1b, f 7;
#X obj 440 128 pack f s;
#X obj 440 47 t f b;
#X obj 485 96 symbol formant\$1, f 9;
#X obj 519 213 pack f s;
#X obj 519 132 t f b;
#X obj 564 181 symbol cross\$1, f 7;
#X obj 586 128 pack f s;
#X obj 586 47 t f b;
#X obj 631 96 symbol pan\$1, f 7;
#X obj 641 231 pack f s;
#X obj 641 150 t f b;
#X obj 686 199 symbol stbin\$1, f 7;
#X obj 707 128 pack f s;
#X obj 707 47 t f b;
#X obj 752 96 symbol amp\$1, f 7;
#X obj 762 259 pack f s;
#X obj 762 178 t f b;
#X obj 807 227 symbol fund\$1, f 7;
#X obj 823 128 pack f s;
#X obj 823 47 t f b;
#X obj 868 96 symbol maskMode\$1, f 10;
#X obj 908 227 pack f s;
#X obj 908 146 t f b;
#X obj 953 195 symbol prob\$1a, f 7;
#X obj 975 128 pack f s;
#X obj 975 47 t f b;
#X obj 1020 96 symbol ratio\$1a, f 8;
#X obj 1047 218 pack f s;
#X obj 1047 137 t f b;
#X obj 1092 186 symbol ratio\$1b, f 8;
#X obj 1118 128 pack f s;
#X obj 1118 47 t f b;
#X obj 1163 96 symbol ratio\$1c, f 8;
#X obj 1191 238 pack f s;
#X obj 1191 157 t f b;
#X obj 1236 206 symbol ratio\$1Link, f 11;
#X obj 1281 129 pack f s;
#X obj 1281 48 t f b;
#X obj 1326 97 symbol ramp\$1Sel, f 9;
#X obj 156 322 r waveformA\$1Random1;
#X obj 156 400 pack f s;
#X obj 156 343 t f b;
#X obj 201 368 symbol waveformA\$1Random1, f 19;
#X obj 328 399 pack f s;
#X obj 328 342 t f b;
#X obj 328 321 r waveformA\$1Random2;
#X obj 373 367 symbol waveformA\$1Random2, f 19;
#X obj 256 504 pack f s;
#X obj 256 447 t f b;
#X obj 428 503 pack f s;
#X obj 428 446 t f b;
#X obj 256 426 r waveformA\$1Random3;
#X obj 301 472 symbol waveformA\$1Random3, f 19;
#X obj 428 425 r waveformA\$1Random4;
#X obj 473 471 symbol waveformA\$1Random4, f 19;
#X obj 542 395 pack f s;
#X obj 542 338 t f b;
#X obj 714 394 pack f s;
#X obj 714 337 t f b;
#X obj 642 499 pack f s;
#X obj 642 442 t f b;
#X obj 814 498 pack f s;
#X obj 814 441 t f b;
#X obj 642 421 r waveformA\$1Random3;
#X obj 814 420 r waveformA\$1Random4;
#X obj 542 317 r waveformB\$1Random1;
#X obj 714 316 r waveformB\$1Random2;
#X obj 587 363 symbol waveformB\$1Random1, f 19;
#X obj 759 362 symbol waveformB\$1Random2, f 19;
#X obj 687 467 symbol waveformB\$1Random3, f 19;
#X obj 859 466 symbol waveformB\$1Random4, f 19;
#X obj 811 542 modwin-names \$1 form;
#X obj 811 564 modwin-names \$1 cross;
#X obj 811 585 modwin-names \$1 fdbck;
#X obj 811 607 modwin-names \$1 del;
#X obj 811 628 modwin-names \$1 pan;
#X obj 811 649 modwin-names \$1 amp;
#X obj 811 670 modwin-names \$1 fund;
#X obj 811 692 modwin-names \$1 scanA;
#X obj 811 714 modwin-names \$1 scanB;
#X obj 996 319 r ramp\$1Sel;
#X obj 996 421 pack f s;
#X obj 996 340 t f b;
#X obj 1041 389 symbol ratio\$1Link, f 11;
#X obj 1128 426 pack f s;
#X obj 1128 345 t f b;
#X obj 1128 324 r feedbackAmount\$1;
#X obj 1173 394 symbol feedbackAmount\$1, f 16;
#X obj 1287 425 pack f s;
#X obj 1287 344 t f b;
#X obj 1287 323 r feedbackTime\$1;
#X obj 1332 393 symbol feedbackTime\$1, f 14;
#X connect 0 0 20 0;
#X connect 1 0 23 0;
#X connect 2 0 26 0;
#X connect 3 0 30 0;
#X connect 4 0 33 0;
#X connect 5 0 36 0;
#X connect 6 0 39 0;
#X connect 7 0 42 0;
#X connect 8 0 45 0;
#X connect 9 0 48 0;
#X connect 10 0 51 0;
#X connect 11 0 54 0;
#X connect 12 0 57 0;
#X connect 13 0 60 0;
#X connect 14 0 63 0;
#X connect 15 0 69 0;
#X connect 16 0 66 0;
#X connect 17 0 72 0;
#X connect 18 0 75 0;
#X connect 19 0 28 0;
#X connect 20 0 19 0;
#X connect 20 1 21 0;
#X connect 21 0 19 1;
#X connect 22 0 28 0;
#X connect 23 0 22 0;
#X connect 23 1 24 0;
#X connect 24 0 22 1;
#X connect 25 0 28 0;
#X connect 26 0 25 0;
#X connect 26 1 27 0;
#X connect 27 0 25 1;
#X connect 29 0 28 0;
#X connect 30 0 29 0;
#X connect 30 1 31 0;
#X connect 31 0 29 1;
#X connect 32 0 28 0;
#X connect 33 0 32 0;
#X connect 33 1 34 0;
#X connect 34 0 32 1;
#X connect 35 0 28 0;
#X connect 36 0 35 0;
#X connect 36 1 37 0;
#X connect 37 0 35 1;
#X connect 38 0 28 0;
#X connect 39 0 38 0;
#X connect 39 1 40 0;
#X connect 40 0 38 1;
#X connect 41 0 28 0;
#X connect 42 0 41 0;
#X connect 42 1 43 0;
#X connect 43 0 41 1;
#X connect 44 0 28 0;
#X connect 45 0 44 0;
#X connect 45 1 46 0;
#X connect 46 0 44 1;
#X connect 47 0 28 0;
#X connect 48 0 47 0;
#X connect 48 1 49 0;
#X connect 49 0 47 1;
#X connect 50 0 28 0;
#X connect 51 0 50 0;
#X connect 51 1 52 0;
#X connect 52 0 50 1;
#X connect 53 0 28 0;
#X connect 54 0 53 0;
#X connect 54 1 55 0;
#X connect 55 0 53 1;
#X connect 56 0 28 0;
#X connect 57 0 56 0;
#X connect 57 1 58 0;
#X connect 58 0 56 1;
#X connect 59 0 28 0;
#X connect 60 0 59 0;
#X connect 60 1 61 0;
#X connect 61 0 59 1;
#X connect 62 0 28 0;
#X connect 63 0 62 0;
#X connect 63 1 64 0;
#X connect 64 0 62 1;
#X connect 65 0 28 0;
#X connect 66 0 65 0;
#X connect 66 1 67 0;
#X connect 67 0 65 1;
#X connect 68 0 28 0;
#X connect 69 0 68 0;
#X connect 69 1 70 0;
#X connect 70 0 68 1;
#X connect 71 0 28 0;
#X connect 72 0 71 0;
#X connect 72 1 73 0;
#X connect 73 0 71 1;
#X connect 74 0 28 0;
#X connect 75 0 74 0;
#X connect 75 1 76 0;
#X connect 76 0 74 1;
#X connect 77 0 79 0;
#X connect 78 0 28 0;
#X connect 79 0 78 0;
#X connect 79 1 80 0;
#X connect 80 0 78 1;
#X connect 81 0 28 0;
#X connect 82 0 81 0;
#X connect 82 1 84 0;
#X connect 83 0 82 0;
#X connect 84 0 81 1;
#X connect 85 0 28 0;
#X connect 86 0 85 0;
#X connect 86 1 90 0;
#X connect 87 0 28 0;
#X connect 88 0 87 0;
#X connect 88 1 92 0;
#X connect 89 0 86 0;
#X connect 90 0 85 1;
#X connect 91 0 88 0;
#X connect 92 0 87 1;
#X connect 93 0 28 0;
#X connect 94 0 93 0;
#X connect 94 1 105 0;
#X connect 95 0 28 0;
#X connect 96 0 95 0;
#X connect 96 1 106 0;
#X connect 97 0 28 0;
#X connect 98 0 97 0;
#X connect 98 1 107 0;
#X connect 99 0 28 0;
#X connect 100 0 99 0;
#X connect 100 1 108 0;
#X connect 101 0 98 0;
#X connect 102 0 100 0;
#X connect 103 0 94 0;
#X connect 104 0 96 0;
#X connect 105 0 93 1;
#X connect 106 0 95 1;
#X connect 107 0 97 1;
#X connect 108 0 99 1;
#X connect 109 0 28 0;
#X connect 110 0 28 0;
#X connect 111 0 28 0;
#X connect 112 0 28 0;
#X connect 113 0 28 0;
#X connect 114 0 28 0;
#X connect 115 0 28 0;
#X connect 116 0 28 0;
#X connect 117 0 28 0;
#X connect 118 0 120 0;
#X connect 119 0 28 0;
#X connect 120 0 119 0;
#X connect 120 1 121 0;
#X connect 121 0 119 1;
#X connect 122 0 28 0;
#X connect 123 0 122 0;
#X connect 123 1 125 0;
#X connect 124 0 123 0;
#X connect 125 0 122 1;
#X connect 126 0 28 0;
#X connect 127 0 126 0;
#X connect 127 1 129 0;
#X connect 128 0 127 0;
#X connect 129 0 126 1;
