#N canvas 884 413 531 661 10;
#X obj 93 360 f 0;
#X obj 125 339 + 1;
#X obj 93 436 pack f f;
#X obj 93 289 t b b;
#X obj 123 591 s puls2IndIn;
#X obj 154 570 s puls3IndIn;
#X obj 184 549 s env1IndIn;
#X obj 215 528 s env2IndIn;
#X obj 245 507 s env3IndIn;
#X obj 93 43 loadbang;
#X text 91 25 random table for each pulsaret and env;
#X obj 154 43 r randomise;
#X obj 265 485 s fundMod1IndIn;
#X obj 93 457 route 0 1 2 3 4 5 6 7 8, f 44;
#X obj 304 550 s fundMod2IndIn;
#X obj 340 578 s fundMod3IndIn;
#X obj 125 360 % 9;
#X obj 177 244 realtime;
#X msg 177 265 seed \$1;
#X obj 93 209 tgl 16 0 empty empty empty 0 -8 0 10 #fcfcfc #000000 #000000 0 1;
#X obj 93 230 metro 1;
#X obj 48 416 sel 8;
#X obj 93 381 t f f;
#X obj 154 318 random;
#X obj 253 261 text size waves;
#X obj 93 165 t b b b;
#X obj 93 612 s puls1IndIn;
#X floatatom 39 560 5 0 0 0 - - - 0;
#X obj 209 78 bng 16 250 50 0 empty empty empty 0 -8 0 10 #fcfcfc #000000 #000000;
#X obj 93 133 delay 100;
#X connect 0 0 1 0;
#X connect 0 0 22 0;
#X connect 1 0 16 0;
#X connect 2 0 13 0;
#X connect 3 0 0 0;
#X connect 3 1 23 0;
#X connect 9 0 29 0;
#X connect 11 0 29 0;
#X connect 13 0 26 0;
#X connect 13 0 27 0;
#X connect 13 1 4 0;
#X connect 13 2 5 0;
#X connect 13 3 6 0;
#X connect 13 4 7 0;
#X connect 13 5 8 0;
#X connect 13 6 12 0;
#X connect 13 7 14 0;
#X connect 13 8 15 0;
#X connect 16 0 0 1;
#X connect 17 0 18 0;
#X connect 18 0 23 0;
#X connect 19 0 20 0;
#X connect 20 0 3 0;
#X connect 21 0 19 0;
#X connect 22 0 21 0;
#X connect 22 1 2 0;
#X connect 23 0 2 1;
#X connect 24 0 23 1;
#X connect 25 0 19 0;
#X connect 25 1 17 1;
#X connect 25 2 24 0;
#X connect 28 0 29 0;
#X connect 29 0 25 0;
