#N canvas 308 44 1436 1043 10;
#X obj 42 415 bng 16 250 50 0 empty empty 3.\ add\ points\ in\ dataset 0 -8 0 10 #fcfcfc #000000 #000000;
#X obj 73 436 + 1;
#X msg 42 457 symbol point-\$1;
#X obj 42 436 f 0;
#X obj 466 425 bng 16 250 50 0 empty empty empty 0 -8 0 10 #fcfcfc #000000 #000000;
#X obj 466 921 random 1024;
#X obj 466 942 / 1024;
#X obj 516 878 random 1024;
#X obj 516 899 / 1024;
#X obj 553 677 / 1024;
#X obj 668 747 random 1024;
#X obj 668 768 / 1024;
#X obj 770 654 random 1024;
#X obj 770 675 / 1024;
#X obj 973 480 random 1024;
#X obj 973 501 / 1024;
#X obj 622 632 / 1024;
#X obj 622 611 random 1024;
#X obj 553 589 t b;
#X obj 598 589 t b;
#X obj 553 547 random 100;
#X obj 553 568 moses 90;
#X obj 719 478 random 100;
#X obj 719 499 moses 80;
#X obj 719 520 t b;
#X obj 719 541 random 32;
#X obj 719 616 / 1024;
#X obj 785 562 / 1024;
#X obj 785 541 random 1024;
#X obj 785 520 t b;
#X obj 719 562 + 992;
#X obj 820 797 / 1024;
#X obj 881 618 / 1024;
#X obj 950 618 / 1024;
#X obj 950 597 random 1024;
#X obj 881 575 t b;
#X obj 926 575 t b;
#X obj 881 533 random 100;
#X obj 881 554 moses 90;
#X obj 929 737 / 1024;
#X obj 998 737 / 1024;
#X obj 998 716 random 1024;
#X obj 929 694 t b;
#X obj 974 694 t b;
#X obj 929 652 random 100;
#X obj 929 673 moses 90;
#X obj 553 632 + 32;
#X obj 553 611 random 64;
#X msg 475 69 0;
#X obj 427 94 tgl 16 0 empty empty empty 0 -8 0 10 #fcfcfc #000000 #000000 0 1;
#X obj 427 115 metro 10;
#X obj 640 194 f 0;
#X obj 675 194 + 1;
#X obj 640 246 t f f, f 12;
#X obj 709 267 sel 0;
#X obj 709 305 f 0;
#X obj 755 305 + 1;
#X obj 794 182 f 0;
#X obj 829 182 + 1;
#X obj 427 157 delay 5;
#X obj 427 136 t b b b b, f 20;
#X obj 640 360 pack f f;
#X obj 675 215 % 4;
#X obj 709 326 / 4;
#X obj 755 326 % 4;
#X obj 640 267 / 4;
#X obj 427 12 inlet;
#X obj 640 381 array set xyBuf\$1;
#X obj 466 985 array set synthParamsBuf\$1;
#X obj 77 644 array define xyBuf\$1 2;
#X obj 42 610 fluid.dataset xyData\$1;
#X obj 42 478 t s b;
#X obj 42 529 pack s f;
#X obj 87 508 f \$1;
#X msg 42 578 addpoint \$1 xyBuf\$2;
#X msg 198 578 addpoint \$1 synthParamsBuf\$2;
#X obj 198 610 fluid.dataset synthParamsData\$1;
#X obj 1024 940 expr expm1($f1) / expm1(1);
#X obj 574 81 realtime;
#X msg 574 102 seed \$1;
#X obj 929 716 random 384;
#X obj 881 597 random 384;
#X obj 1024 790 random 100;
#X obj 1024 832 t b;
#X obj 1105 832 t b;
#X obj 1024 919 / 1024;
#X obj 618 931 expr expm1($f1) / expm1(1);
#X obj 427 33 t b b b b, f 49;
#X msg 718 54 clear;
#X obj 718 75 t a a;
#X obj 794 251 t b b;
#X obj 794 313 outlet;
#X obj 618 790 random 100;
#X obj 618 832 t b;
#X obj 618 853 random 256;
#X obj 618 811 moses 50, f 12;
#X obj 618 910 / 1024;
#X obj 687 832 t b;
#X obj 687 853 random 768;
#X obj 687 874 + 256;
#X obj 820 776 random 1024;
#X obj 248 644 array define synthParamsBuf\$1 13;
#X obj 466 446 t b b b b b b b b b b b b b, f 103;
#X obj 466 963 pack f f f f f f f f f f f f f, f 102;
#X obj 1081 501 random 512;
#X obj 1081 522 / 512;
#X obj 794 230 sel 15;
#X obj 829 203 % 16;
#X obj 1024 853 random 256;
#X obj 1105 853 random 768;
#X obj 1105 875 + 256;
#X obj 1024 811 moses 80, f 14;
#X connect 0 0 3 0;
#X connect 1 0 3 1;
#X connect 2 0 71 0;
#X connect 3 0 1 0;
#X connect 3 0 2 0;
#X connect 4 0 102 0;
#X connect 5 0 6 0;
#X connect 6 0 103 0;
#X connect 7 0 8 0;
#X connect 8 0 103 1;
#X connect 9 0 103 2;
#X connect 10 0 11 0;
#X connect 11 0 103 4;
#X connect 12 0 13 0;
#X connect 13 0 103 6;
#X connect 14 0 15 0;
#X connect 15 0 103 10;
#X connect 16 0 103 2;
#X connect 17 0 16 0;
#X connect 18 0 47 0;
#X connect 19 0 17 0;
#X connect 20 0 21 0;
#X connect 21 0 18 0;
#X connect 21 1 19 0;
#X connect 22 0 23 0;
#X connect 23 0 24 0;
#X connect 23 1 29 0;
#X connect 24 0 25 0;
#X connect 25 0 30 0;
#X connect 26 0 103 5;
#X connect 27 0 103 5;
#X connect 28 0 27 0;
#X connect 29 0 28 0;
#X connect 30 0 26 0;
#X connect 31 0 103 7;
#X connect 32 0 103 8;
#X connect 33 0 103 8;
#X connect 34 0 33 0;
#X connect 35 0 81 0;
#X connect 36 0 34 0;
#X connect 37 0 38 0;
#X connect 38 0 35 0;
#X connect 38 1 36 0;
#X connect 39 0 103 9;
#X connect 40 0 103 9;
#X connect 41 0 40 0;
#X connect 42 0 80 0;
#X connect 43 0 41 0;
#X connect 44 0 45 0;
#X connect 45 0 42 0;
#X connect 45 1 43 0;
#X connect 46 0 9 0;
#X connect 47 0 46 0;
#X connect 48 0 51 1;
#X connect 48 0 55 1;
#X connect 49 0 50 0;
#X connect 50 0 60 0;
#X connect 51 0 52 0;
#X connect 51 0 53 0;
#X connect 52 0 62 0;
#X connect 53 0 65 0;
#X connect 53 1 54 0;
#X connect 54 0 55 0;
#X connect 55 0 56 0;
#X connect 55 0 63 0;
#X connect 56 0 64 0;
#X connect 57 0 58 0;
#X connect 57 0 106 0;
#X connect 58 0 107 0;
#X connect 59 0 0 0;
#X connect 60 0 59 0;
#X connect 60 1 4 0;
#X connect 60 2 51 0;
#X connect 60 3 57 0;
#X connect 61 0 67 0;
#X connect 62 0 51 1;
#X connect 63 0 61 1;
#X connect 64 0 55 1;
#X connect 65 0 61 0;
#X connect 66 0 87 0;
#X connect 71 0 72 0;
#X connect 71 1 73 0;
#X connect 72 0 74 0;
#X connect 72 0 75 0;
#X connect 73 0 72 1;
#X connect 74 0 70 0;
#X connect 75 0 76 0;
#X connect 77 0 103 11;
#X connect 78 0 79 0;
#X connect 79 0 5 0;
#X connect 79 0 7 0;
#X connect 79 0 47 0;
#X connect 79 0 17 0;
#X connect 79 0 10 0;
#X connect 79 0 25 0;
#X connect 79 0 28 0;
#X connect 79 0 12 0;
#X connect 79 0 34 0;
#X connect 79 0 41 0;
#X connect 79 0 14 0;
#X connect 79 0 80 0;
#X connect 79 0 81 0;
#X connect 79 0 82 0;
#X connect 79 0 92 0;
#X connect 79 0 100 0;
#X connect 79 0 104 0;
#X connect 80 0 39 0;
#X connect 81 0 32 0;
#X connect 82 0 111 0;
#X connect 83 0 108 0;
#X connect 84 0 109 0;
#X connect 85 0 77 0;
#X connect 86 0 103 3;
#X connect 87 0 49 0;
#X connect 87 1 48 0;
#X connect 87 2 78 1;
#X connect 87 3 88 0;
#X connect 88 0 89 0;
#X connect 89 0 70 0;
#X connect 89 1 76 0;
#X connect 90 0 91 0;
#X connect 90 1 49 0;
#X connect 92 0 95 0;
#X connect 93 0 94 0;
#X connect 94 0 96 0;
#X connect 95 0 93 0;
#X connect 95 1 97 0;
#X connect 96 0 86 0;
#X connect 97 0 98 0;
#X connect 98 0 99 0;
#X connect 99 0 96 0;
#X connect 100 0 31 0;
#X connect 102 0 5 0;
#X connect 102 1 7 0;
#X connect 102 2 20 0;
#X connect 102 3 92 0;
#X connect 102 4 10 0;
#X connect 102 5 22 0;
#X connect 102 6 12 0;
#X connect 102 7 100 0;
#X connect 102 8 37 0;
#X connect 102 9 44 0;
#X connect 102 10 14 0;
#X connect 102 11 82 0;
#X connect 102 12 104 0;
#X connect 103 0 68 0;
#X connect 104 0 105 0;
#X connect 105 0 103 12;
#X connect 106 0 90 0;
#X connect 107 0 57 1;
#X connect 108 0 85 0;
#X connect 109 0 110 0;
#X connect 110 0 85 0;
#X connect 111 0 83 0;
#X connect 111 1 84 0;
